<svg width="306" height="29" viewBox="0 0 306 29" fill="none" xmlns="http://www.w3.org/2000/svg">
<rect y="11" width="7" height="7" fill="black"/>
<path d="M20.3594 7.625V19H18.0156V7.625H20.3594ZM24.8906 12.4844V14.3125H19.7188V12.4844H24.8906ZM25.4375 7.625V9.46094H19.7188V7.625H25.4375ZM29.0312 10.5469V19H26.7734V10.5469H29.0312ZM26.6328 8.34375C26.6328 8.01562 26.7474 7.74479 26.9766 7.53125C27.2057 7.31771 27.513 7.21094 27.8984 7.21094C28.2786 7.21094 28.5833 7.31771 28.8125 7.53125C29.0469 7.74479 29.1641 8.01562 29.1641 8.34375C29.1641 8.67188 29.0469 8.94271 28.8125 9.15625C28.5833 9.36979 28.2786 9.47656 27.8984 9.47656C27.513 9.47656 27.2057 9.36979 26.9766 9.15625C26.7474 8.94271 26.6328 8.67188 26.6328 8.34375ZM36.2422 10.5469H38.2812V18.7188C38.2812 19.4896 38.1094 20.1432 37.7656 20.6797C37.4271 21.2214 36.9531 21.6302 36.3438 21.9062C35.7344 22.1875 35.026 22.3281 34.2188 22.3281C33.8646 22.3281 33.4896 22.2812 33.0938 22.1875C32.7031 22.0938 32.3281 21.9479 31.9688 21.75C31.6146 21.5521 31.3177 21.3021 31.0781 21L32.0703 19.6719C32.3307 19.974 32.6328 20.2083 32.9766 20.375C33.3203 20.5469 33.7005 20.6328 34.1172 20.6328C34.5234 20.6328 34.8672 20.5573 35.1484 20.4062C35.4297 20.2604 35.6458 20.0443 35.7969 19.7578C35.9479 19.4766 36.0234 19.1354 36.0234 18.7344V12.5L36.2422 10.5469ZM30.5547 14.875V14.7109C30.5547 14.0651 30.6328 13.4792 30.7891 12.9531C30.9505 12.4219 31.1771 11.9661 31.4688 11.5859C31.7656 11.2057 32.125 10.9115 32.5469 10.7031C32.9688 10.4948 33.4453 10.3906 33.9766 10.3906C34.5391 10.3906 35.0104 10.4948 35.3906 10.7031C35.7708 10.9115 36.0833 11.2083 36.3281 11.5938C36.5729 11.974 36.763 12.4245 36.8984 12.9453C37.0391 13.4609 37.1484 14.026 37.2266 14.6406V15C37.1484 15.5885 37.0312 16.1354 36.875 16.6406C36.7188 17.1458 36.513 17.5885 36.2578 17.9688C36.0026 18.3438 35.6849 18.6354 35.3047 18.8438C34.9297 19.0521 34.4818 19.1562 33.9609 19.1562C33.4401 19.1562 32.9688 19.0495 32.5469 18.8359C32.1302 18.6224 31.7734 18.3229 31.4766 17.9375C31.1797 17.5521 30.9505 17.099 30.7891 16.5781C30.6328 16.0573 30.5547 15.4896 30.5547 14.875ZM32.8047 14.7109V14.875C32.8047 15.224 32.8385 15.5495 32.9062 15.8516C32.974 16.1536 33.0781 16.4219 33.2188 16.6562C33.3646 16.8854 33.5443 17.0651 33.7578 17.1953C33.9766 17.3203 34.2344 17.3828 34.5312 17.3828C34.9427 17.3828 35.2786 17.2969 35.5391 17.125C35.7995 16.9479 35.9948 16.7057 36.125 16.3984C36.2552 16.0911 36.3307 15.737 36.3516 15.3359V14.3125C36.3411 13.9844 36.2969 13.6901 36.2188 13.4297C36.1406 13.1641 36.0312 12.9375 35.8906 12.75C35.75 12.5625 35.5677 12.4167 35.3438 12.3125C35.1198 12.2083 34.8542 12.1562 34.5469 12.1562C34.25 12.1562 33.9922 12.224 33.7734 12.3594C33.5599 12.4896 33.3802 12.6693 33.2344 12.8984C33.0938 13.1276 32.987 13.3984 32.9141 13.7109C32.8411 14.0182 32.8047 14.3516 32.8047 14.7109ZM42.2812 12.2969V19H40.0234V10.5469H42.1406L42.2812 12.2969ZM41.9688 14.4766H41.3438C41.3438 13.888 41.4141 13.3464 41.5547 12.8516C41.7005 12.3516 41.9115 11.9193 42.1875 11.5547C42.4688 11.1849 42.8151 10.8984 43.2266 10.6953C43.638 10.4922 44.1146 10.3906 44.6562 10.3906C45.0312 10.3906 45.375 10.4479 45.6875 10.5625C46 10.6719 46.2682 10.8464 46.4922 11.0859C46.7214 11.3203 46.8984 11.6276 47.0234 12.0078C47.1484 12.3828 47.2109 12.8333 47.2109 13.3594V19H44.9609V13.6094C44.9609 13.224 44.9089 12.9271 44.8047 12.7188C44.7005 12.5104 44.5521 12.3646 44.3594 12.2812C44.1719 12.1979 43.9453 12.1562 43.6797 12.1562C43.388 12.1562 43.1328 12.2161 42.9141 12.3359C42.7005 12.4557 42.5234 12.6224 42.3828 12.8359C42.2422 13.0443 42.138 13.2891 42.0703 13.5703C42.0026 13.8516 41.9688 14.1536 41.9688 14.4766ZM47 14.2188L46.1953 14.3203C46.1953 13.7682 46.263 13.2552 46.3984 12.7812C46.5391 12.3073 46.7448 11.8906 47.0156 11.5312C47.2917 11.1719 47.6328 10.8932 48.0391 10.6953C48.4453 10.4922 48.9141 10.3906 49.4453 10.3906C49.8516 10.3906 50.2214 10.4505 50.5547 10.5703C50.888 10.6849 51.1719 10.8698 51.4062 11.125C51.6458 11.375 51.8281 11.7031 51.9531 12.1094C52.0833 12.5156 52.1484 13.013 52.1484 13.6016V19H49.8906V13.6016C49.8906 13.2109 49.8385 12.9141 49.7344 12.7109C49.6354 12.5026 49.4896 12.3594 49.2969 12.2812C49.1094 12.1979 48.8854 12.1562 48.625 12.1562C48.3542 12.1562 48.1172 12.2109 47.9141 12.3203C47.7109 12.4245 47.5417 12.5703 47.4062 12.7578C47.2708 12.9453 47.1693 13.1641 47.1016 13.4141C47.0339 13.6589 47 13.9271 47 14.2188ZM58.4531 17.0938V13.3281C58.4531 13.0573 58.4089 12.8255 58.3203 12.6328C58.2318 12.4349 58.0938 12.2812 57.9062 12.1719C57.724 12.0625 57.487 12.0078 57.1953 12.0078C56.9453 12.0078 56.7292 12.0521 56.5469 12.1406C56.3646 12.224 56.224 12.3464 56.125 12.5078C56.026 12.6641 55.9766 12.849 55.9766 13.0625H53.7266C53.7266 12.7031 53.8099 12.362 53.9766 12.0391C54.1432 11.7161 54.3854 11.4323 54.7031 11.1875C55.0208 10.9375 55.3984 10.7422 55.8359 10.6016C56.2786 10.4609 56.7734 10.3906 57.3203 10.3906C57.9766 10.3906 58.5599 10.5 59.0703 10.7188C59.5807 10.9375 59.9818 11.2656 60.2734 11.7031C60.5703 12.1406 60.7188 12.6875 60.7188 13.3438V16.9609C60.7188 17.4245 60.7474 17.8047 60.8047 18.1016C60.862 18.3932 60.9453 18.6484 61.0547 18.8672V19H58.7812C58.6719 18.7708 58.5885 18.4844 58.5312 18.1406C58.4792 17.7917 58.4531 17.4427 58.4531 17.0938ZM58.75 13.8516L58.7656 15.125H57.5078C57.2109 15.125 56.9531 15.1589 56.7344 15.2266C56.5156 15.2943 56.3359 15.3906 56.1953 15.5156C56.0547 15.6354 55.9505 15.776 55.8828 15.9375C55.8203 16.099 55.7891 16.276 55.7891 16.4688C55.7891 16.6615 55.8333 16.8359 55.9219 16.9922C56.0104 17.1432 56.138 17.263 56.3047 17.3516C56.4714 17.4349 56.6667 17.4766 56.8906 17.4766C57.2292 17.4766 57.5234 17.4089 57.7734 17.2734C58.0234 17.138 58.2161 16.9714 58.3516 16.7734C58.4922 16.5755 58.5651 16.388 58.5703 16.2109L59.1641 17.1641C59.0807 17.3776 58.9661 17.599 58.8203 17.8281C58.6797 18.0573 58.5 18.2734 58.2812 18.4766C58.0625 18.6745 57.7995 18.8385 57.4922 18.9688C57.1849 19.0938 56.8203 19.1562 56.3984 19.1562C55.862 19.1562 55.375 19.0495 54.9375 18.8359C54.5052 18.6172 54.1615 18.3177 53.9062 17.9375C53.6562 17.5521 53.5312 17.1146 53.5312 16.625C53.5312 16.1823 53.6146 15.7891 53.7812 15.4453C53.9479 15.1016 54.1927 14.8125 54.5156 14.5781C54.8438 14.3385 55.2526 14.1589 55.7422 14.0391C56.2318 13.9141 56.7995 13.8516 57.4453 13.8516H58.75Z" fill="black"/>
</svg>
