<svg width="306" height="29" viewBox="0 0 306 29" fill="none" xmlns="http://www.w3.org/2000/svg">
<rect y="11" width="7" height="7" fill="black"/>
<path d="M20.3594 7.625V19H18.0156V7.625H20.3594ZM24.8906 12.4844V14.3125H19.7188V12.4844H24.8906ZM25.4375 7.625V9.46094H19.7188V7.625H25.4375ZM28.7031 12.3906V19H26.4531V10.5469H28.5703L28.7031 12.3906ZM31.25 10.4922L31.2109 12.5781C31.1016 12.5625 30.9688 12.5495 30.8125 12.5391C30.6615 12.5234 30.5234 12.5156 30.3984 12.5156C30.0807 12.5156 29.8047 12.5573 29.5703 12.6406C29.3411 12.7188 29.1484 12.8359 28.9922 12.9922C28.8411 13.1484 28.7266 13.3385 28.6484 13.5625C28.5755 13.7865 28.5339 14.0417 28.5234 14.3281L28.0703 14.1875C28.0703 13.6406 28.125 13.138 28.2344 12.6797C28.3438 12.2161 28.5026 11.8125 28.7109 11.4688C28.9245 11.125 29.1849 10.8594 29.4922 10.6719C29.7995 10.4844 30.151 10.3906 30.5469 10.3906C30.6719 10.3906 30.7995 10.401 30.9297 10.4219C31.0599 10.4375 31.1667 10.4609 31.25 10.4922ZM31.7188 14.8594V14.6953C31.7188 14.0755 31.8073 13.5052 31.9844 12.9844C32.1615 12.4583 32.4193 12.0026 32.7578 11.6172C33.0964 11.2318 33.513 10.9323 34.0078 10.7188C34.5026 10.5 35.0703 10.3906 35.7109 10.3906C36.3516 10.3906 36.9219 10.5 37.4219 10.7188C37.9219 10.9323 38.3411 11.2318 38.6797 11.6172C39.0234 12.0026 39.2839 12.4583 39.4609 12.9844C39.638 13.5052 39.7266 14.0755 39.7266 14.6953V14.8594C39.7266 15.474 39.638 16.0443 39.4609 16.5703C39.2839 17.0911 39.0234 17.5469 38.6797 17.9375C38.3411 18.3229 37.9245 18.6224 37.4297 18.8359C36.9349 19.0495 36.3672 19.1562 35.7266 19.1562C35.0859 19.1562 34.5156 19.0495 34.0156 18.8359C33.5208 18.6224 33.1016 18.3229 32.7578 17.9375C32.4193 17.5469 32.1615 17.0911 31.9844 16.5703C31.8073 16.0443 31.7188 15.474 31.7188 14.8594ZM33.9688 14.6953V14.8594C33.9688 15.2135 34 15.5443 34.0625 15.8516C34.125 16.1589 34.224 16.4297 34.3594 16.6641C34.5 16.8932 34.6823 17.0729 34.9062 17.2031C35.1302 17.3333 35.4036 17.3984 35.7266 17.3984C36.0391 17.3984 36.3073 17.3333 36.5312 17.2031C36.7552 17.0729 36.9349 16.8932 37.0703 16.6641C37.2057 16.4297 37.3047 16.1589 37.3672 15.8516C37.4349 15.5443 37.4688 15.2135 37.4688 14.8594V14.6953C37.4688 14.3516 37.4349 14.0286 37.3672 13.7266C37.3047 13.4193 37.2031 13.1484 37.0625 12.9141C36.9271 12.6745 36.7474 12.487 36.5234 12.3516C36.2995 12.2161 36.0286 12.1484 35.7109 12.1484C35.3932 12.1484 35.1224 12.2161 34.8984 12.3516C34.6797 12.487 34.5 12.6745 34.3594 12.9141C34.224 13.1484 34.125 13.4193 34.0625 13.7266C34 14.0286 33.9688 14.3516 33.9688 14.6953ZM43.3125 12.3516V19H41.0625V10.5469H43.1719L43.3125 12.3516ZM42.9844 14.4766H42.375C42.375 13.8516 42.4557 13.2891 42.6172 12.7891C42.7786 12.2839 43.0052 11.8542 43.2969 11.5C43.5885 11.1406 43.9349 10.8672 44.3359 10.6797C44.7422 10.487 45.1953 10.3906 45.6953 10.3906C46.0911 10.3906 46.4531 10.4479 46.7812 10.5625C47.1094 10.6771 47.3906 10.8594 47.625 11.1094C47.8646 11.3594 48.0469 11.6901 48.1719 12.1016C48.3021 12.513 48.3672 13.0156 48.3672 13.6094V19H46.1016V13.6016C46.1016 13.2266 46.0495 12.9349 45.9453 12.7266C45.8411 12.5182 45.6875 12.3724 45.4844 12.2891C45.2865 12.2005 45.0417 12.1562 44.75 12.1562C44.4479 12.1562 44.1849 12.2161 43.9609 12.3359C43.7422 12.4557 43.5599 12.6224 43.4141 12.8359C43.2734 13.0443 43.1667 13.2891 43.0938 13.5703C43.0208 13.8516 42.9844 14.1536 42.9844 14.4766ZM54.2188 10.5469V12.1406H49.2969V10.5469H54.2188ZM50.5156 8.46094H52.7656V16.4531C52.7656 16.6979 52.7969 16.8854 52.8594 17.0156C52.9271 17.1458 53.026 17.237 53.1562 17.2891C53.2865 17.3359 53.4505 17.3594 53.6484 17.3594C53.7891 17.3594 53.9141 17.3542 54.0234 17.3438C54.138 17.3281 54.2344 17.3125 54.3125 17.2969L54.3203 18.9531C54.1276 19.0156 53.9193 19.0651 53.6953 19.1016C53.4714 19.138 53.224 19.1562 52.9531 19.1562C52.4583 19.1562 52.026 19.0755 51.6562 18.9141C51.2917 18.7474 51.0104 18.4818 50.8125 18.1172C50.6146 17.7526 50.5156 17.2734 50.5156 16.6797V8.46094ZM59.9375 13.2344V15H55.5234V13.2344H59.9375ZM65.7031 19.1562C65.0469 19.1562 64.4583 19.0521 63.9375 18.8438C63.4167 18.6302 62.974 18.3359 62.6094 17.9609C62.25 17.5859 61.974 17.151 61.7812 16.6562C61.5885 16.1562 61.4922 15.625 61.4922 15.0625V14.75C61.4922 14.1094 61.5833 13.5234 61.7656 12.9922C61.9479 12.4609 62.2083 12 62.5469 11.6094C62.8906 11.2188 63.3073 10.9193 63.7969 10.7109C64.2865 10.4974 64.8385 10.3906 65.4531 10.3906C66.0521 10.3906 66.5833 10.4896 67.0469 10.6875C67.5104 10.8854 67.8984 11.1667 68.2109 11.5312C68.5286 11.8958 68.7682 12.3333 68.9297 12.8438C69.0911 13.349 69.1719 13.9115 69.1719 14.5312V15.4688H62.4531V13.9688H66.9609V13.7969C66.9609 13.4844 66.9036 13.2057 66.7891 12.9609C66.6797 12.7109 66.513 12.513 66.2891 12.3672C66.0651 12.2214 65.7786 12.1484 65.4297 12.1484C65.1328 12.1484 64.8776 12.2135 64.6641 12.3438C64.4505 12.474 64.276 12.6562 64.1406 12.8906C64.0104 13.125 63.9115 13.401 63.8438 13.7188C63.7812 14.0312 63.75 14.375 63.75 14.75V15.0625C63.75 15.401 63.7969 15.7135 63.8906 16C63.9896 16.2865 64.1276 16.5339 64.3047 16.7422C64.487 16.9505 64.7057 17.112 64.9609 17.2266C65.2214 17.3411 65.5156 17.3984 65.8438 17.3984C66.25 17.3984 66.6276 17.3203 66.9766 17.1641C67.3307 17.0026 67.6354 16.7604 67.8906 16.4375L68.9844 17.625C68.8073 17.8802 68.5651 18.125 68.2578 18.3594C67.9557 18.5938 67.5911 18.7865 67.1641 18.9375C66.737 19.0833 66.25 19.1562 65.7031 19.1562ZM72.6562 12.3516V19H70.4062V10.5469H72.5156L72.6562 12.3516ZM72.3281 14.4766H71.7188C71.7188 13.8516 71.7995 13.2891 71.9609 12.7891C72.1224 12.2839 72.349 11.8542 72.6406 11.5C72.9323 11.1406 73.2786 10.8672 73.6797 10.6797C74.0859 10.487 74.5391 10.3906 75.0391 10.3906C75.4349 10.3906 75.7969 10.4479 76.125 10.5625C76.4531 10.6771 76.7344 10.8594 76.9688 11.1094C77.2083 11.3594 77.3906 11.6901 77.5156 12.1016C77.6458 12.513 77.7109 13.0156 77.7109 13.6094V19H75.4453V13.6016C75.4453 13.2266 75.3932 12.9349 75.2891 12.7266C75.1849 12.5182 75.0312 12.3724 74.8281 12.2891C74.6302 12.2005 74.3854 12.1562 74.0938 12.1562C73.7917 12.1562 73.5286 12.2161 73.3047 12.3359C73.0859 12.4557 72.9036 12.6224 72.7578 12.8359C72.6172 13.0443 72.5104 13.2891 72.4375 13.5703C72.3646 13.8516 72.3281 14.1536 72.3281 14.4766ZM84.4141 17.1562V7H86.6797V19H84.6406L84.4141 17.1562ZM79.0703 14.875V14.7109C79.0703 14.0651 79.1432 13.4792 79.2891 12.9531C79.4349 12.4219 79.6484 11.9661 79.9297 11.5859C80.2109 11.2057 80.5573 10.9115 80.9688 10.7031C81.3802 10.4948 81.849 10.3906 82.375 10.3906C82.8698 10.3906 83.3021 10.4948 83.6719 10.7031C84.0469 10.9115 84.3646 11.2083 84.625 11.5938C84.8906 11.974 85.1042 12.4245 85.2656 12.9453C85.4271 13.4609 85.5443 14.026 85.6172 14.6406V15C85.5443 15.5885 85.4271 16.1354 85.2656 16.6406C85.1042 17.1458 84.8906 17.5885 84.625 17.9688C84.3646 18.3438 84.0469 18.6354 83.6719 18.8438C83.2969 19.0521 82.8594 19.1562 82.3594 19.1562C81.8333 19.1562 81.3646 19.0495 80.9531 18.8359C80.5469 18.6224 80.2031 18.3229 79.9219 17.9375C79.6458 17.5521 79.4349 17.099 79.2891 16.5781C79.1432 16.0573 79.0703 15.4896 79.0703 14.875ZM81.3203 14.7109V14.875C81.3203 15.224 81.3464 15.5495 81.3984 15.8516C81.4557 16.1536 81.5469 16.4219 81.6719 16.6562C81.8021 16.8854 81.9688 17.0651 82.1719 17.1953C82.3802 17.3203 82.6328 17.3828 82.9297 17.3828C83.3151 17.3828 83.6328 17.2969 83.8828 17.125C84.1328 16.9479 84.3229 16.7057 84.4531 16.3984C84.5885 16.0911 84.6667 15.737 84.6875 15.3359V14.3125C84.6719 13.9844 84.625 13.6901 84.5469 13.4297C84.474 13.1641 84.3646 12.9375 84.2188 12.75C84.0781 12.5625 83.901 12.4167 83.6875 12.3125C83.4792 12.2083 83.2318 12.1562 82.9453 12.1562C82.6536 12.1562 82.4036 12.224 82.1953 12.3594C81.987 12.4896 81.8177 12.6693 81.6875 12.8984C81.5625 13.1276 81.4688 13.3984 81.4062 13.7109C81.349 14.0182 81.3203 14.3516 81.3203 14.7109ZM96.0547 19H93.5781L93.5938 17.1719H96.0547C96.6693 17.1719 97.1875 17.0339 97.6094 16.7578C98.0312 16.4766 98.349 16.0677 98.5625 15.5312C98.7812 14.9948 98.8906 14.3464 98.8906 13.5859V13.0312C98.8906 12.4479 98.8281 11.9349 98.7031 11.4922C98.5833 11.0495 98.4036 10.6771 98.1641 10.375C97.9245 10.0729 97.6302 9.84635 97.2812 9.69531C96.9323 9.53906 96.5312 9.46094 96.0781 9.46094H93.5312V7.625H96.0781C96.8385 7.625 97.5339 7.75521 98.1641 8.01562C98.7995 8.27083 99.349 8.63802 99.8125 9.11719C100.276 9.59635 100.633 10.1693 100.883 10.8359C101.138 11.4974 101.266 12.2344 101.266 13.0469V13.5859C101.266 14.3932 101.138 15.1302 100.883 15.7969C100.633 16.4635 100.276 17.0365 99.8125 17.5156C99.3542 17.9896 98.8047 18.3568 98.1641 18.6172C97.5286 18.8724 96.8255 19 96.0547 19ZM94.9062 7.625V19H92.5625V7.625H94.9062ZM106.719 19.1562C106.062 19.1562 105.474 19.0521 104.953 18.8438C104.432 18.6302 103.99 18.3359 103.625 17.9609C103.266 17.5859 102.99 17.151 102.797 16.6562C102.604 16.1562 102.508 15.625 102.508 15.0625V14.75C102.508 14.1094 102.599 13.5234 102.781 12.9922C102.964 12.4609 103.224 12 103.562 11.6094C103.906 11.2188 104.323 10.9193 104.812 10.7109C105.302 10.4974 105.854 10.3906 106.469 10.3906C107.068 10.3906 107.599 10.4896 108.062 10.6875C108.526 10.8854 108.914 11.1667 109.227 11.5312C109.544 11.8958 109.784 12.3333 109.945 12.8438C110.107 13.349 110.188 13.9115 110.188 14.5312V15.4688H103.469V13.9688H107.977V13.7969C107.977 13.4844 107.919 13.2057 107.805 12.9609C107.695 12.7109 107.529 12.513 107.305 12.3672C107.081 12.2214 106.794 12.1484 106.445 12.1484C106.148 12.1484 105.893 12.2135 105.68 12.3438C105.466 12.474 105.292 12.6562 105.156 12.8906C105.026 13.125 104.927 13.401 104.859 13.7188C104.797 14.0312 104.766 14.375 104.766 14.75V15.0625C104.766 15.401 104.812 15.7135 104.906 16C105.005 16.2865 105.143 16.5339 105.32 16.7422C105.503 16.9505 105.721 17.112 105.977 17.2266C106.237 17.3411 106.531 17.3984 106.859 17.3984C107.266 17.3984 107.643 17.3203 107.992 17.1641C108.346 17.0026 108.651 16.7604 108.906 16.4375L110 17.625C109.823 17.8802 109.581 18.125 109.273 18.3594C108.971 18.5938 108.607 18.7865 108.18 18.9375C107.753 19.0833 107.266 19.1562 106.719 19.1562ZM114.234 17.3594L116.109 10.5469H118.461L115.609 19H114.188L114.234 17.3594ZM112.945 10.5469L114.828 17.3672L114.867 19H113.438L110.586 10.5469H112.945ZM123.25 19.1562C122.594 19.1562 122.005 19.0521 121.484 18.8438C120.964 18.6302 120.521 18.3359 120.156 17.9609C119.797 17.5859 119.521 17.151 119.328 16.6562C119.135 16.1562 119.039 15.625 119.039 15.0625V14.75C119.039 14.1094 119.13 13.5234 119.312 12.9922C119.495 12.4609 119.755 12 120.094 11.6094C120.438 11.2188 120.854 10.9193 121.344 10.7109C121.833 10.4974 122.385 10.3906 123 10.3906C123.599 10.3906 124.13 10.4896 124.594 10.6875C125.057 10.8854 125.445 11.1667 125.758 11.5312C126.076 11.8958 126.315 12.3333 126.477 12.8438C126.638 13.349 126.719 13.9115 126.719 14.5312V15.4688H120V13.9688H124.508V13.7969C124.508 13.4844 124.451 13.2057 124.336 12.9609C124.227 12.7109 124.06 12.513 123.836 12.3672C123.612 12.2214 123.326 12.1484 122.977 12.1484C122.68 12.1484 122.424 12.2135 122.211 12.3438C121.997 12.474 121.823 12.6562 121.688 12.8906C121.557 13.125 121.458 13.401 121.391 13.7188C121.328 14.0312 121.297 14.375 121.297 14.75V15.0625C121.297 15.401 121.344 15.7135 121.438 16C121.536 16.2865 121.674 16.5339 121.852 16.7422C122.034 16.9505 122.253 17.112 122.508 17.2266C122.768 17.3411 123.062 17.3984 123.391 17.3984C123.797 17.3984 124.174 17.3203 124.523 17.1641C124.878 17.0026 125.182 16.7604 125.438 16.4375L126.531 17.625C126.354 17.8802 126.112 18.125 125.805 18.3594C125.503 18.5938 125.138 18.7865 124.711 18.9375C124.284 19.0833 123.797 19.1562 123.25 19.1562ZM130.375 7V19H128.117V7H130.375ZM131.875 14.8594V14.6953C131.875 14.0755 131.964 13.5052 132.141 12.9844C132.318 12.4583 132.576 12.0026 132.914 11.6172C133.253 11.2318 133.669 10.9323 134.164 10.7188C134.659 10.5 135.227 10.3906 135.867 10.3906C136.508 10.3906 137.078 10.5 137.578 10.7188C138.078 10.9323 138.497 11.2318 138.836 11.6172C139.18 12.0026 139.44 12.4583 139.617 12.9844C139.794 13.5052 139.883 14.0755 139.883 14.6953V14.8594C139.883 15.474 139.794 16.0443 139.617 16.5703C139.44 17.0911 139.18 17.5469 138.836 17.9375C138.497 18.3229 138.081 18.6224 137.586 18.8359C137.091 19.0495 136.523 19.1562 135.883 19.1562C135.242 19.1562 134.672 19.0495 134.172 18.8359C133.677 18.6224 133.258 18.3229 132.914 17.9375C132.576 17.5469 132.318 17.0911 132.141 16.5703C131.964 16.0443 131.875 15.474 131.875 14.8594ZM134.125 14.6953V14.8594C134.125 15.2135 134.156 15.5443 134.219 15.8516C134.281 16.1589 134.38 16.4297 134.516 16.6641C134.656 16.8932 134.839 17.0729 135.062 17.2031C135.286 17.3333 135.56 17.3984 135.883 17.3984C136.195 17.3984 136.464 17.3333 136.688 17.2031C136.911 17.0729 137.091 16.8932 137.227 16.6641C137.362 16.4297 137.461 16.1589 137.523 15.8516C137.591 15.5443 137.625 15.2135 137.625 14.8594V14.6953C137.625 14.3516 137.591 14.0286 137.523 13.7266C137.461 13.4193 137.359 13.1484 137.219 12.9141C137.083 12.6745 136.904 12.487 136.68 12.3516C136.456 12.2161 136.185 12.1484 135.867 12.1484C135.549 12.1484 135.279 12.2161 135.055 12.3516C134.836 12.487 134.656 12.6745 134.516 12.9141C134.38 13.1484 134.281 13.4193 134.219 13.7266C134.156 14.0286 134.125 14.3516 134.125 14.6953ZM143.516 12.1719V22.25H141.266V10.5469H143.352L143.516 12.1719ZM148.867 14.6797V14.8438C148.867 15.4583 148.794 16.0286 148.648 16.5547C148.508 17.0807 148.299 17.5391 148.023 17.9297C147.747 18.3151 147.404 18.6172 146.992 18.8359C146.586 19.0495 146.117 19.1562 145.586 19.1562C145.07 19.1562 144.622 19.0521 144.242 18.8438C143.862 18.6354 143.542 18.3438 143.281 17.9688C143.026 17.5885 142.82 17.1484 142.664 16.6484C142.508 16.1484 142.388 15.612 142.305 15.0391V14.6094C142.388 13.9948 142.508 13.4323 142.664 12.9219C142.82 12.4062 143.026 11.9609 143.281 11.5859C143.542 11.2057 143.859 10.9115 144.234 10.7031C144.615 10.4948 145.06 10.3906 145.57 10.3906C146.107 10.3906 146.578 10.4922 146.984 10.6953C147.396 10.8984 147.74 11.1901 148.016 11.5703C148.297 11.9505 148.508 12.4036 148.648 12.9297C148.794 13.4557 148.867 14.0391 148.867 14.6797ZM146.609 14.8438V14.6797C146.609 14.3203 146.578 13.9896 146.516 13.6875C146.458 13.3802 146.365 13.112 146.234 12.8828C146.109 12.6536 145.943 12.4766 145.734 12.3516C145.531 12.2214 145.284 12.1562 144.992 12.1562C144.685 12.1562 144.422 12.2057 144.203 12.3047C143.99 12.4036 143.815 12.5469 143.68 12.7344C143.544 12.9219 143.443 13.1458 143.375 13.4062C143.307 13.6667 143.266 13.9609 143.25 14.2891V15.375C143.276 15.7604 143.349 16.1068 143.469 16.4141C143.589 16.7161 143.773 16.9557 144.023 17.1328C144.273 17.3099 144.602 17.3984 145.008 17.3984C145.305 17.3984 145.555 17.3333 145.758 17.2031C145.961 17.0677 146.125 16.8828 146.25 16.6484C146.38 16.4141 146.471 16.1432 146.523 15.8359C146.581 15.5286 146.609 15.1979 146.609 14.8438ZM152.516 12.2969V19H150.258V10.5469H152.375L152.516 12.2969ZM152.203 14.4766H151.578C151.578 13.888 151.648 13.3464 151.789 12.8516C151.935 12.3516 152.146 11.9193 152.422 11.5547C152.703 11.1849 153.049 10.8984 153.461 10.6953C153.872 10.4922 154.349 10.3906 154.891 10.3906C155.266 10.3906 155.609 10.4479 155.922 10.5625C156.234 10.6719 156.503 10.8464 156.727 11.0859C156.956 11.3203 157.133 11.6276 157.258 12.0078C157.383 12.3828 157.445 12.8333 157.445 13.3594V19H155.195V13.6094C155.195 13.224 155.143 12.9271 155.039 12.7188C154.935 12.5104 154.786 12.3646 154.594 12.2812C154.406 12.1979 154.18 12.1562 153.914 12.1562C153.622 12.1562 153.367 12.2161 153.148 12.3359C152.935 12.4557 152.758 12.6224 152.617 12.8359C152.477 13.0443 152.372 13.2891 152.305 13.5703C152.237 13.8516 152.203 14.1536 152.203 14.4766ZM157.234 14.2188L156.43 14.3203C156.43 13.7682 156.497 13.2552 156.633 12.7812C156.773 12.3073 156.979 11.8906 157.25 11.5312C157.526 11.1719 157.867 10.8932 158.273 10.6953C158.68 10.4922 159.148 10.3906 159.68 10.3906C160.086 10.3906 160.456 10.4505 160.789 10.5703C161.122 10.6849 161.406 10.8698 161.641 11.125C161.88 11.375 162.062 11.7031 162.188 12.1094C162.318 12.5156 162.383 13.013 162.383 13.6016V19H160.125V13.6016C160.125 13.2109 160.073 12.9141 159.969 12.7109C159.87 12.5026 159.724 12.3594 159.531 12.2812C159.344 12.1979 159.12 12.1562 158.859 12.1562C158.589 12.1562 158.352 12.2109 158.148 12.3203C157.945 12.4245 157.776 12.5703 157.641 12.7578C157.505 12.9453 157.404 13.1641 157.336 13.4141C157.268 13.6589 157.234 13.9271 157.234 14.2188ZM168.016 19.1562C167.359 19.1562 166.771 19.0521 166.25 18.8438C165.729 18.6302 165.286 18.3359 164.922 17.9609C164.562 17.5859 164.286 17.151 164.094 16.6562C163.901 16.1562 163.805 15.625 163.805 15.0625V14.75C163.805 14.1094 163.896 13.5234 164.078 12.9922C164.26 12.4609 164.521 12 164.859 11.6094C165.203 11.2188 165.62 10.9193 166.109 10.7109C166.599 10.4974 167.151 10.3906 167.766 10.3906C168.365 10.3906 168.896 10.4896 169.359 10.6875C169.823 10.8854 170.211 11.1667 170.523 11.5312C170.841 11.8958 171.081 12.3333 171.242 12.8438C171.404 13.349 171.484 13.9115 171.484 14.5312V15.4688H164.766V13.9688H169.273V13.7969C169.273 13.4844 169.216 13.2057 169.102 12.9609C168.992 12.7109 168.826 12.513 168.602 12.3672C168.378 12.2214 168.091 12.1484 167.742 12.1484C167.445 12.1484 167.19 12.2135 166.977 12.3438C166.763 12.474 166.589 12.6562 166.453 12.8906C166.323 13.125 166.224 13.401 166.156 13.7188C166.094 14.0312 166.062 14.375 166.062 14.75V15.0625C166.062 15.401 166.109 15.7135 166.203 16C166.302 16.2865 166.44 16.5339 166.617 16.7422C166.799 16.9505 167.018 17.112 167.273 17.2266C167.534 17.3411 167.828 17.3984 168.156 17.3984C168.562 17.3984 168.94 17.3203 169.289 17.1641C169.643 17.0026 169.948 16.7604 170.203 16.4375L171.297 17.625C171.12 17.8802 170.878 18.125 170.57 18.3594C170.268 18.5938 169.904 18.7865 169.477 18.9375C169.049 19.0833 168.562 19.1562 168.016 19.1562ZM174.969 12.3516V19H172.719V10.5469H174.828L174.969 12.3516ZM174.641 14.4766H174.031C174.031 13.8516 174.112 13.2891 174.273 12.7891C174.435 12.2839 174.661 11.8542 174.953 11.5C175.245 11.1406 175.591 10.8672 175.992 10.6797C176.398 10.487 176.852 10.3906 177.352 10.3906C177.747 10.3906 178.109 10.4479 178.438 10.5625C178.766 10.6771 179.047 10.8594 179.281 11.1094C179.521 11.3594 179.703 11.6901 179.828 12.1016C179.958 12.513 180.023 13.0156 180.023 13.6094V19H177.758V13.6016C177.758 13.2266 177.706 12.9349 177.602 12.7266C177.497 12.5182 177.344 12.3724 177.141 12.2891C176.943 12.2005 176.698 12.1562 176.406 12.1562C176.104 12.1562 175.841 12.2161 175.617 12.3359C175.398 12.4557 175.216 12.6224 175.07 12.8359C174.93 13.0443 174.823 13.2891 174.75 13.5703C174.677 13.8516 174.641 14.1536 174.641 14.4766ZM185.875 10.5469V12.1406H180.953V10.5469H185.875ZM182.172 8.46094H184.422V16.4531C184.422 16.6979 184.453 16.8854 184.516 17.0156C184.583 17.1458 184.682 17.237 184.812 17.2891C184.943 17.3359 185.107 17.3594 185.305 17.3594C185.445 17.3594 185.57 17.3542 185.68 17.3438C185.794 17.3281 185.891 17.3125 185.969 17.2969L185.977 18.9531C185.784 19.0156 185.576 19.0651 185.352 19.1016C185.128 19.138 184.88 19.1562 184.609 19.1562C184.115 19.1562 183.682 19.0755 183.312 18.9141C182.948 18.7474 182.667 18.4818 182.469 18.1172C182.271 17.7526 182.172 17.2734 182.172 16.6797V8.46094Z" fill="black"/>
</svg>
