<svg width="306" height="29" viewBox="0 0 306 29" fill="none" xmlns="http://www.w3.org/2000/svg">
<rect y="11" width="7" height="7" fill="black"/>
<path d="M20.7578 17.1953L23.0234 7.625H24.2891L24.5781 9.21875L22.1641 19H20.8047L20.7578 17.1953ZM19.5938 7.625L21.4688 17.1953L21.3125 19H19.7969L17.2734 7.625H19.5938ZM26.5703 17.1562L28.4219 7.625H30.7422L28.2266 19H26.7109L26.5703 17.1562ZM25 7.625L27.2812 17.2344L27.2188 19H25.8594L23.4297 9.21094L23.7422 7.625H25ZM35.5156 19.1562C34.8594 19.1562 34.2708 19.0521 33.75 18.8438C33.2292 18.6302 32.7865 18.3359 32.4219 17.9609C32.0625 17.5859 31.7865 17.151 31.5938 16.6562C31.401 16.1562 31.3047 15.625 31.3047 15.0625V14.75C31.3047 14.1094 31.3958 13.5234 31.5781 12.9922C31.7604 12.4609 32.0208 12 32.3594 11.6094C32.7031 11.2188 33.1198 10.9193 33.6094 10.7109C34.099 10.4974 34.651 10.3906 35.2656 10.3906C35.8646 10.3906 36.3958 10.4896 36.8594 10.6875C37.3229 10.8854 37.7109 11.1667 38.0234 11.5312C38.3411 11.8958 38.5807 12.3333 38.7422 12.8438C38.9036 13.349 38.9844 13.9115 38.9844 14.5312V15.4688H32.2656V13.9688H36.7734V13.7969C36.7734 13.4844 36.7161 13.2057 36.6016 12.9609C36.4922 12.7109 36.3255 12.513 36.1016 12.3672C35.8776 12.2214 35.5911 12.1484 35.2422 12.1484C34.9453 12.1484 34.6901 12.2135 34.4766 12.3438C34.263 12.474 34.0885 12.6562 33.9531 12.8906C33.8229 13.125 33.724 13.401 33.6562 13.7188C33.5938 14.0312 33.5625 14.375 33.5625 14.75V15.0625C33.5625 15.401 33.6094 15.7135 33.7031 16C33.8021 16.2865 33.9401 16.5339 34.1172 16.7422C34.2995 16.9505 34.5182 17.112 34.7734 17.2266C35.0339 17.3411 35.3281 17.3984 35.6562 17.3984C36.0625 17.3984 36.4401 17.3203 36.7891 17.1641C37.1432 17.0026 37.4479 16.7604 37.7031 16.4375L38.7969 17.625C38.6198 17.8802 38.3776 18.125 38.0703 18.3594C37.7682 18.5938 37.4036 18.7865 36.9766 18.9375C36.5495 19.0833 36.0625 19.1562 35.5156 19.1562ZM40.2656 7H42.5156V17.0625L42.2891 19H40.2656V7ZM47.8672 14.6875V14.8516C47.8672 15.4818 47.7995 16.0599 47.6641 16.5859C47.5339 17.112 47.3307 17.5677 47.0547 17.9531C46.7786 18.3333 46.4349 18.6302 46.0234 18.8438C45.6172 19.0521 45.138 19.1562 44.5859 19.1562C44.0703 19.1562 43.6224 19.0521 43.2422 18.8438C42.8672 18.6354 42.5521 18.3411 42.2969 17.9609C42.0417 17.5807 41.8359 17.1354 41.6797 16.625C41.5234 16.1146 41.4062 15.5573 41.3281 14.9531V14.5938C41.4062 13.9896 41.5234 13.4323 41.6797 12.9219C41.8359 12.4115 42.0417 11.9661 42.2969 11.5859C42.5521 11.2057 42.8672 10.9115 43.2422 10.7031C43.6172 10.4948 44.0599 10.3906 44.5703 10.3906C45.1276 10.3906 45.612 10.4974 46.0234 10.7109C46.4401 10.9193 46.7839 11.2161 47.0547 11.6016C47.3307 11.9818 47.5339 12.4349 47.6641 12.9609C47.7995 13.4818 47.8672 14.0573 47.8672 14.6875ZM45.6172 14.8516V14.6875C45.6172 14.3438 45.5911 14.0208 45.5391 13.7188C45.4922 13.4115 45.4089 13.1432 45.2891 12.9141C45.1693 12.6797 45.0052 12.4948 44.7969 12.3594C44.5938 12.224 44.3307 12.1562 44.0078 12.1562C43.7005 12.1562 43.4401 12.2083 43.2266 12.3125C43.013 12.4167 42.8359 12.5625 42.6953 12.75C42.5599 12.9375 42.4583 13.1615 42.3906 13.4219C42.3229 13.6771 42.2812 13.9583 42.2656 14.2656V15.2891C42.2812 15.7005 42.349 16.0651 42.4688 16.3828C42.5938 16.6953 42.7812 16.9427 43.0312 17.125C43.2865 17.3021 43.6172 17.3906 44.0234 17.3906C44.3411 17.3906 44.6042 17.3281 44.8125 17.2031C45.0208 17.0781 45.1823 16.901 45.2969 16.6719C45.4167 16.4427 45.5 16.1745 45.5469 15.8672C45.5938 15.5547 45.6172 15.2161 45.6172 14.8516ZM57.8125 17.0938V13.3281C57.8125 13.0573 57.7682 12.8255 57.6797 12.6328C57.5911 12.4349 57.4531 12.2812 57.2656 12.1719C57.0833 12.0625 56.8464 12.0078 56.5547 12.0078C56.3047 12.0078 56.0885 12.0521 55.9062 12.1406C55.724 12.224 55.5833 12.3464 55.4844 12.5078C55.3854 12.6641 55.3359 12.849 55.3359 13.0625H53.0859C53.0859 12.7031 53.1693 12.362 53.3359 12.0391C53.5026 11.7161 53.7448 11.4323 54.0625 11.1875C54.3802 10.9375 54.7578 10.7422 55.1953 10.6016C55.638 10.4609 56.1328 10.3906 56.6797 10.3906C57.3359 10.3906 57.9193 10.5 58.4297 10.7188C58.9401 10.9375 59.3411 11.2656 59.6328 11.7031C59.9297 12.1406 60.0781 12.6875 60.0781 13.3438V16.9609C60.0781 17.4245 60.1068 17.8047 60.1641 18.1016C60.2214 18.3932 60.3047 18.6484 60.4141 18.8672V19H58.1406C58.0312 18.7708 57.9479 18.4844 57.8906 18.1406C57.8385 17.7917 57.8125 17.4427 57.8125 17.0938ZM58.1094 13.8516L58.125 15.125H56.8672C56.5703 15.125 56.3125 15.1589 56.0938 15.2266C55.875 15.2943 55.6953 15.3906 55.5547 15.5156C55.4141 15.6354 55.3099 15.776 55.2422 15.9375C55.1797 16.099 55.1484 16.276 55.1484 16.4688C55.1484 16.6615 55.1927 16.8359 55.2812 16.9922C55.3698 17.1432 55.4974 17.263 55.6641 17.3516C55.8307 17.4349 56.026 17.4766 56.25 17.4766C56.5885 17.4766 56.8828 17.4089 57.1328 17.2734C57.3828 17.138 57.5755 16.9714 57.7109 16.7734C57.8516 16.5755 57.9245 16.388 57.9297 16.2109L58.5234 17.1641C58.4401 17.3776 58.3255 17.599 58.1797 17.8281C58.0391 18.0573 57.8594 18.2734 57.6406 18.4766C57.4219 18.6745 57.1589 18.8385 56.8516 18.9688C56.5443 19.0938 56.1797 19.1562 55.7578 19.1562C55.2214 19.1562 54.7344 19.0495 54.2969 18.8359C53.8646 18.6172 53.5208 18.3177 53.2656 17.9375C53.0156 17.5521 52.8906 17.1146 52.8906 16.625C52.8906 16.1823 52.974 15.7891 53.1406 15.4453C53.3073 15.1016 53.5521 14.8125 53.875 14.5781C54.2031 14.3385 54.612 14.1589 55.1016 14.0391C55.5911 13.9141 56.1589 13.8516 56.8047 13.8516H58.1094ZM64.0156 12.3516V19H61.7656V10.5469H63.875L64.0156 12.3516ZM63.6875 14.4766H63.0781C63.0781 13.8516 63.1589 13.2891 63.3203 12.7891C63.4818 12.2839 63.7083 11.8542 64 11.5C64.2917 11.1406 64.638 10.8672 65.0391 10.6797C65.4453 10.487 65.8984 10.3906 66.3984 10.3906C66.7943 10.3906 67.1562 10.4479 67.4844 10.5625C67.8125 10.6771 68.0938 10.8594 68.3281 11.1094C68.5677 11.3594 68.75 11.6901 68.875 12.1016C69.0052 12.513 69.0703 13.0156 69.0703 13.6094V19H66.8047V13.6016C66.8047 13.2266 66.7526 12.9349 66.6484 12.7266C66.5443 12.5182 66.3906 12.3724 66.1875 12.2891C65.9896 12.2005 65.7448 12.1562 65.4531 12.1562C65.151 12.1562 64.888 12.2161 64.6641 12.3359C64.4453 12.4557 64.263 12.6224 64.1172 12.8359C63.9766 13.0443 63.8698 13.2891 63.7969 13.5703C63.724 13.8516 63.6875 14.1536 63.6875 14.4766ZM75.7734 17.1562V7H78.0391V19H76L75.7734 17.1562ZM70.4297 14.875V14.7109C70.4297 14.0651 70.5026 13.4792 70.6484 12.9531C70.7943 12.4219 71.0078 11.9661 71.2891 11.5859C71.5703 11.2057 71.9167 10.9115 72.3281 10.7031C72.7396 10.4948 73.2083 10.3906 73.7344 10.3906C74.2292 10.3906 74.6615 10.4948 75.0312 10.7031C75.4062 10.9115 75.724 11.2083 75.9844 11.5938C76.25 11.974 76.4635 12.4245 76.625 12.9453C76.7865 13.4609 76.9036 14.026 76.9766 14.6406V15C76.9036 15.5885 76.7865 16.1354 76.625 16.6406C76.4635 17.1458 76.25 17.5885 75.9844 17.9688C75.724 18.3438 75.4062 18.6354 75.0312 18.8438C74.6562 19.0521 74.2188 19.1562 73.7188 19.1562C73.1927 19.1562 72.724 19.0495 72.3125 18.8359C71.9062 18.6224 71.5625 18.3229 71.2812 17.9375C71.0052 17.5521 70.7943 17.099 70.6484 16.5781C70.5026 16.0573 70.4297 15.4896 70.4297 14.875ZM72.6797 14.7109V14.875C72.6797 15.224 72.7057 15.5495 72.7578 15.8516C72.8151 16.1536 72.9062 16.4219 73.0312 16.6562C73.1615 16.8854 73.3281 17.0651 73.5312 17.1953C73.7396 17.3203 73.9922 17.3828 74.2891 17.3828C74.6745 17.3828 74.9922 17.2969 75.2422 17.125C75.4922 16.9479 75.6823 16.7057 75.8125 16.3984C75.9479 16.0911 76.026 15.737 76.0469 15.3359V14.3125C76.0312 13.9844 75.9844 13.6901 75.9062 13.4297C75.8333 13.1641 75.724 12.9375 75.5781 12.75C75.4375 12.5625 75.2604 12.4167 75.0469 12.3125C74.8385 12.2083 74.5911 12.1562 74.3047 12.1562C74.013 12.1562 73.763 12.224 73.5547 12.3594C73.3464 12.4896 73.1771 12.6693 73.0469 12.8984C72.9219 13.1276 72.8281 13.3984 72.7656 13.7109C72.7083 14.0182 72.6797 14.3516 72.6797 14.7109ZM84.9922 7.625H86.9766L89.8984 15.9766L92.8203 7.625H94.8047L90.6953 19H89.1016L84.9922 7.625ZM83.9219 7.625H85.8984L86.2578 15.7656V19H83.9219V7.625ZM93.8984 7.625H95.8828V19H93.5391V15.7656L93.8984 7.625ZM97.4375 14.8594V14.6953C97.4375 14.0755 97.526 13.5052 97.7031 12.9844C97.8802 12.4583 98.138 12.0026 98.4766 11.6172C98.8151 11.2318 99.2318 10.9323 99.7266 10.7188C100.221 10.5 100.789 10.3906 101.43 10.3906C102.07 10.3906 102.641 10.5 103.141 10.7188C103.641 10.9323 104.06 11.2318 104.398 11.6172C104.742 12.0026 105.003 12.4583 105.18 12.9844C105.357 13.5052 105.445 14.0755 105.445 14.6953V14.8594C105.445 15.474 105.357 16.0443 105.18 16.5703C105.003 17.0911 104.742 17.5469 104.398 17.9375C104.06 18.3229 103.643 18.6224 103.148 18.8359C102.654 19.0495 102.086 19.1562 101.445 19.1562C100.805 19.1562 100.234 19.0495 99.7344 18.8359C99.2396 18.6224 98.8203 18.3229 98.4766 17.9375C98.138 17.5469 97.8802 17.0911 97.7031 16.5703C97.526 16.0443 97.4375 15.474 97.4375 14.8594ZM99.6875 14.6953V14.8594C99.6875 15.2135 99.7188 15.5443 99.7812 15.8516C99.8438 16.1589 99.9427 16.4297 100.078 16.6641C100.219 16.8932 100.401 17.0729 100.625 17.2031C100.849 17.3333 101.122 17.3984 101.445 17.3984C101.758 17.3984 102.026 17.3333 102.25 17.2031C102.474 17.0729 102.654 16.8932 102.789 16.6641C102.924 16.4297 103.023 16.1589 103.086 15.8516C103.154 15.5443 103.188 15.2135 103.188 14.8594V14.6953C103.188 14.3516 103.154 14.0286 103.086 13.7266C103.023 13.4193 102.922 13.1484 102.781 12.9141C102.646 12.6745 102.466 12.487 102.242 12.3516C102.018 12.2161 101.747 12.1484 101.43 12.1484C101.112 12.1484 100.841 12.2161 100.617 12.3516C100.398 12.487 100.219 12.6745 100.078 12.9141C99.9427 13.1484 99.8438 13.4193 99.7812 13.7266C99.7188 14.0286 99.6875 14.3516 99.6875 14.6953ZM106.828 7H109.078V17.0625L108.852 19H106.828V7ZM114.43 14.6875V14.8516C114.43 15.4818 114.362 16.0599 114.227 16.5859C114.096 17.112 113.893 17.5677 113.617 17.9531C113.341 18.3333 112.997 18.6302 112.586 18.8438C112.18 19.0521 111.701 19.1562 111.148 19.1562C110.633 19.1562 110.185 19.0521 109.805 18.8438C109.43 18.6354 109.115 18.3411 108.859 17.9609C108.604 17.5807 108.398 17.1354 108.242 16.625C108.086 16.1146 107.969 15.5573 107.891 14.9531V14.5938C107.969 13.9896 108.086 13.4323 108.242 12.9219C108.398 12.4115 108.604 11.9661 108.859 11.5859C109.115 11.2057 109.43 10.9115 109.805 10.7031C110.18 10.4948 110.622 10.3906 111.133 10.3906C111.69 10.3906 112.174 10.4974 112.586 10.7109C113.003 10.9193 113.346 11.2161 113.617 11.6016C113.893 11.9818 114.096 12.4349 114.227 12.9609C114.362 13.4818 114.43 14.0573 114.43 14.6875ZM112.18 14.8516V14.6875C112.18 14.3438 112.154 14.0208 112.102 13.7188C112.055 13.4115 111.971 13.1432 111.852 12.9141C111.732 12.6797 111.568 12.4948 111.359 12.3594C111.156 12.224 110.893 12.1562 110.57 12.1562C110.263 12.1562 110.003 12.2083 109.789 12.3125C109.576 12.4167 109.398 12.5625 109.258 12.75C109.122 12.9375 109.021 13.1615 108.953 13.4219C108.885 13.6771 108.844 13.9583 108.828 14.2656V15.2891C108.844 15.7005 108.911 16.0651 109.031 16.3828C109.156 16.6953 109.344 16.9427 109.594 17.125C109.849 17.3021 110.18 17.3906 110.586 17.3906C110.904 17.3906 111.167 17.3281 111.375 17.2031C111.583 17.0781 111.745 16.901 111.859 16.6719C111.979 16.4427 112.062 16.1745 112.109 15.8672C112.156 15.5547 112.18 15.2161 112.18 14.8516ZM118.203 10.5469V19H115.945V10.5469H118.203ZM115.805 8.34375C115.805 8.01562 115.919 7.74479 116.148 7.53125C116.378 7.31771 116.685 7.21094 117.07 7.21094C117.451 7.21094 117.755 7.31771 117.984 7.53125C118.219 7.74479 118.336 8.01562 118.336 8.34375C118.336 8.67188 118.219 8.94271 117.984 9.15625C117.755 9.36979 117.451 9.47656 117.07 9.47656C116.685 9.47656 116.378 9.36979 116.148 9.15625C115.919 8.94271 115.805 8.67188 115.805 8.34375ZM122.438 7V19H120.18V7H122.438ZM128.188 19.1562C127.531 19.1562 126.943 19.0521 126.422 18.8438C125.901 18.6302 125.458 18.3359 125.094 17.9609C124.734 17.5859 124.458 17.151 124.266 16.6562C124.073 16.1562 123.977 15.625 123.977 15.0625V14.75C123.977 14.1094 124.068 13.5234 124.25 12.9922C124.432 12.4609 124.693 12 125.031 11.6094C125.375 11.2188 125.792 10.9193 126.281 10.7109C126.771 10.4974 127.323 10.3906 127.938 10.3906C128.536 10.3906 129.068 10.4896 129.531 10.6875C129.995 10.8854 130.383 11.1667 130.695 11.5312C131.013 11.8958 131.253 12.3333 131.414 12.8438C131.576 13.349 131.656 13.9115 131.656 14.5312V15.4688H124.938V13.9688H129.445V13.7969C129.445 13.4844 129.388 13.2057 129.273 12.9609C129.164 12.7109 128.997 12.513 128.773 12.3672C128.549 12.2214 128.263 12.1484 127.914 12.1484C127.617 12.1484 127.362 12.2135 127.148 12.3438C126.935 12.474 126.76 12.6562 126.625 12.8906C126.495 13.125 126.396 13.401 126.328 13.7188C126.266 14.0312 126.234 14.375 126.234 14.75V15.0625C126.234 15.401 126.281 15.7135 126.375 16C126.474 16.2865 126.612 16.5339 126.789 16.7422C126.971 16.9505 127.19 17.112 127.445 17.2266C127.706 17.3411 128 17.3984 128.328 17.3984C128.734 17.3984 129.112 17.3203 129.461 17.1641C129.815 17.0026 130.12 16.7604 130.375 16.4375L131.469 17.625C131.292 17.8802 131.049 18.125 130.742 18.3594C130.44 18.5938 130.076 18.7865 129.648 18.9375C129.221 19.0833 128.734 19.1562 128.188 19.1562ZM141.688 9.57031L138.594 19H136.102L140.328 7.625H141.914L141.688 9.57031ZM144.258 19L141.156 9.57031L140.906 7.625H142.508L146.758 19H144.258ZM144.117 14.7656V16.6016H138.109V14.7656H144.117ZM149.672 12.1719V22.25H147.422V10.5469H149.508L149.672 12.1719ZM155.023 14.6797V14.8438C155.023 15.4583 154.951 16.0286 154.805 16.5547C154.664 17.0807 154.456 17.5391 154.18 17.9297C153.904 18.3151 153.56 18.6172 153.148 18.8359C152.742 19.0495 152.273 19.1562 151.742 19.1562C151.227 19.1562 150.779 19.0521 150.398 18.8438C150.018 18.6354 149.698 18.3438 149.438 17.9688C149.182 17.5885 148.977 17.1484 148.82 16.6484C148.664 16.1484 148.544 15.612 148.461 15.0391V14.6094C148.544 13.9948 148.664 13.4323 148.82 12.9219C148.977 12.4062 149.182 11.9609 149.438 11.5859C149.698 11.2057 150.016 10.9115 150.391 10.7031C150.771 10.4948 151.216 10.3906 151.727 10.3906C152.263 10.3906 152.734 10.4922 153.141 10.6953C153.552 10.8984 153.896 11.1901 154.172 11.5703C154.453 11.9505 154.664 12.4036 154.805 12.9297C154.951 13.4557 155.023 14.0391 155.023 14.6797ZM152.766 14.8438V14.6797C152.766 14.3203 152.734 13.9896 152.672 13.6875C152.615 13.3802 152.521 13.112 152.391 12.8828C152.266 12.6536 152.099 12.4766 151.891 12.3516C151.688 12.2214 151.44 12.1562 151.148 12.1562C150.841 12.1562 150.578 12.2057 150.359 12.3047C150.146 12.4036 149.971 12.5469 149.836 12.7344C149.701 12.9219 149.599 13.1458 149.531 13.4062C149.464 13.6667 149.422 13.9609 149.406 14.2891V15.375C149.432 15.7604 149.505 16.1068 149.625 16.4141C149.745 16.7161 149.93 16.9557 150.18 17.1328C150.43 17.3099 150.758 17.3984 151.164 17.3984C151.461 17.3984 151.711 17.3333 151.914 17.2031C152.117 17.0677 152.281 16.8828 152.406 16.6484C152.536 16.4141 152.628 16.1432 152.68 15.8359C152.737 15.5286 152.766 15.1979 152.766 14.8438ZM158.672 12.1719V22.25H156.422V10.5469H158.508L158.672 12.1719ZM164.023 14.6797V14.8438C164.023 15.4583 163.951 16.0286 163.805 16.5547C163.664 17.0807 163.456 17.5391 163.18 17.9297C162.904 18.3151 162.56 18.6172 162.148 18.8359C161.742 19.0495 161.273 19.1562 160.742 19.1562C160.227 19.1562 159.779 19.0521 159.398 18.8438C159.018 18.6354 158.698 18.3438 158.438 17.9688C158.182 17.5885 157.977 17.1484 157.82 16.6484C157.664 16.1484 157.544 15.612 157.461 15.0391V14.6094C157.544 13.9948 157.664 13.4323 157.82 12.9219C157.977 12.4062 158.182 11.9609 158.438 11.5859C158.698 11.2057 159.016 10.9115 159.391 10.7031C159.771 10.4948 160.216 10.3906 160.727 10.3906C161.263 10.3906 161.734 10.4922 162.141 10.6953C162.552 10.8984 162.896 11.1901 163.172 11.5703C163.453 11.9505 163.664 12.4036 163.805 12.9297C163.951 13.4557 164.023 14.0391 164.023 14.6797ZM161.766 14.8438V14.6797C161.766 14.3203 161.734 13.9896 161.672 13.6875C161.615 13.3802 161.521 13.112 161.391 12.8828C161.266 12.6536 161.099 12.4766 160.891 12.3516C160.688 12.2214 160.44 12.1562 160.148 12.1562C159.841 12.1562 159.578 12.2057 159.359 12.3047C159.146 12.4036 158.971 12.5469 158.836 12.7344C158.701 12.9219 158.599 13.1458 158.531 13.4062C158.464 13.6667 158.422 13.9609 158.406 14.2891V15.375C158.432 15.7604 158.505 16.1068 158.625 16.4141C158.745 16.7161 158.93 16.9557 159.18 17.1328C159.43 17.3099 159.758 17.3984 160.164 17.3984C160.461 17.3984 160.711 17.3333 160.914 17.2031C161.117 17.0677 161.281 16.8828 161.406 16.6484C161.536 16.4141 161.628 16.1432 161.68 15.8359C161.737 15.5286 161.766 15.1979 161.766 14.8438ZM173.039 19H170.562L170.578 17.1719H173.039C173.654 17.1719 174.172 17.0339 174.594 16.7578C175.016 16.4766 175.333 16.0677 175.547 15.5312C175.766 14.9948 175.875 14.3464 175.875 13.5859V13.0312C175.875 12.4479 175.812 11.9349 175.688 11.4922C175.568 11.0495 175.388 10.6771 175.148 10.375C174.909 10.0729 174.615 9.84635 174.266 9.69531C173.917 9.53906 173.516 9.46094 173.062 9.46094H170.516V7.625H173.062C173.823 7.625 174.518 7.75521 175.148 8.01562C175.784 8.27083 176.333 8.63802 176.797 9.11719C177.26 9.59635 177.617 10.1693 177.867 10.8359C178.122 11.4974 178.25 12.2344 178.25 13.0469V13.5859C178.25 14.3932 178.122 15.1302 177.867 15.7969C177.617 16.4635 177.26 17.0365 176.797 17.5156C176.339 17.9896 175.789 18.3568 175.148 18.6172C174.513 18.8724 173.81 19 173.039 19ZM171.891 7.625V19H169.547V7.625H171.891ZM183.703 19.1562C183.047 19.1562 182.458 19.0521 181.938 18.8438C181.417 18.6302 180.974 18.3359 180.609 17.9609C180.25 17.5859 179.974 17.151 179.781 16.6562C179.589 16.1562 179.492 15.625 179.492 15.0625V14.75C179.492 14.1094 179.583 13.5234 179.766 12.9922C179.948 12.4609 180.208 12 180.547 11.6094C180.891 11.2188 181.307 10.9193 181.797 10.7109C182.286 10.4974 182.839 10.3906 183.453 10.3906C184.052 10.3906 184.583 10.4896 185.047 10.6875C185.51 10.8854 185.898 11.1667 186.211 11.5312C186.529 11.8958 186.768 12.3333 186.93 12.8438C187.091 13.349 187.172 13.9115 187.172 14.5312V15.4688H180.453V13.9688H184.961V13.7969C184.961 13.4844 184.904 13.2057 184.789 12.9609C184.68 12.7109 184.513 12.513 184.289 12.3672C184.065 12.2214 183.779 12.1484 183.43 12.1484C183.133 12.1484 182.878 12.2135 182.664 12.3438C182.451 12.474 182.276 12.6562 182.141 12.8906C182.01 13.125 181.911 13.401 181.844 13.7188C181.781 14.0312 181.75 14.375 181.75 14.75V15.0625C181.75 15.401 181.797 15.7135 181.891 16C181.99 16.2865 182.128 16.5339 182.305 16.7422C182.487 16.9505 182.706 17.112 182.961 17.2266C183.221 17.3411 183.516 17.3984 183.844 17.3984C184.25 17.3984 184.628 17.3203 184.977 17.1641C185.331 17.0026 185.635 16.7604 185.891 16.4375L186.984 17.625C186.807 17.8802 186.565 18.125 186.258 18.3594C185.956 18.5938 185.591 18.7865 185.164 18.9375C184.737 19.0833 184.25 19.1562 183.703 19.1562ZM193.023 16.6641C193.023 16.5026 192.977 16.3568 192.883 16.2266C192.789 16.0964 192.615 15.9766 192.359 15.8672C192.109 15.7526 191.747 15.6484 191.273 15.5547C190.846 15.4609 190.448 15.3438 190.078 15.2031C189.714 15.0573 189.396 14.8828 189.125 14.6797C188.859 14.4766 188.651 14.237 188.5 13.9609C188.349 13.6797 188.273 13.3594 188.273 13C188.273 12.6458 188.349 12.3125 188.5 12C188.656 11.6875 188.878 11.4115 189.164 11.1719C189.456 10.9271 189.81 10.737 190.227 10.6016C190.648 10.4609 191.122 10.3906 191.648 10.3906C192.383 10.3906 193.013 10.5078 193.539 10.7422C194.07 10.9766 194.477 11.2995 194.758 11.7109C195.044 12.1172 195.188 12.5807 195.188 13.1016H192.938C192.938 12.8828 192.891 12.6875 192.797 12.5156C192.708 12.3385 192.568 12.2005 192.375 12.1016C192.188 11.9974 191.943 11.9453 191.641 11.9453C191.391 11.9453 191.174 11.9896 190.992 12.0781C190.81 12.1615 190.669 12.276 190.57 12.4219C190.477 12.5625 190.43 12.7188 190.43 12.8906C190.43 13.0208 190.456 13.138 190.508 13.2422C190.565 13.3411 190.656 13.4323 190.781 13.5156C190.906 13.599 191.068 13.6771 191.266 13.75C191.469 13.8177 191.719 13.8802 192.016 13.9375C192.625 14.0625 193.169 14.2266 193.648 14.4297C194.128 14.6276 194.508 14.8984 194.789 15.2422C195.07 15.5807 195.211 16.026 195.211 16.5781C195.211 16.9531 195.128 17.2969 194.961 17.6094C194.794 17.9219 194.555 18.1953 194.242 18.4297C193.93 18.6589 193.555 18.8385 193.117 18.9688C192.685 19.0938 192.198 19.1562 191.656 19.1562C190.87 19.1562 190.203 19.0156 189.656 18.7344C189.115 18.4531 188.703 18.0964 188.422 17.6641C188.146 17.2266 188.008 16.7786 188.008 16.3203H190.141C190.151 16.6276 190.229 16.875 190.375 17.0625C190.526 17.25 190.716 17.3854 190.945 17.4688C191.18 17.5521 191.432 17.5938 191.703 17.5938C191.995 17.5938 192.237 17.5547 192.43 17.4766C192.622 17.3932 192.768 17.2839 192.867 17.1484C192.971 17.0078 193.023 16.8464 193.023 16.6641ZM199.047 10.5469V19H196.789V10.5469H199.047ZM196.648 8.34375C196.648 8.01562 196.763 7.74479 196.992 7.53125C197.221 7.31771 197.529 7.21094 197.914 7.21094C198.294 7.21094 198.599 7.31771 198.828 7.53125C199.062 7.74479 199.18 8.01562 199.18 8.34375C199.18 8.67188 199.062 8.94271 198.828 9.15625C198.599 9.36979 198.294 9.47656 197.914 9.47656C197.529 9.47656 197.221 9.36979 196.992 9.15625C196.763 8.94271 196.648 8.67188 196.648 8.34375ZM206.258 10.5469H208.297V18.7188C208.297 19.4896 208.125 20.1432 207.781 20.6797C207.443 21.2214 206.969 21.6302 206.359 21.9062C205.75 22.1875 205.042 22.3281 204.234 22.3281C203.88 22.3281 203.505 22.2812 203.109 22.1875C202.719 22.0938 202.344 21.9479 201.984 21.75C201.63 21.5521 201.333 21.3021 201.094 21L202.086 19.6719C202.346 19.974 202.648 20.2083 202.992 20.375C203.336 20.5469 203.716 20.6328 204.133 20.6328C204.539 20.6328 204.883 20.5573 205.164 20.4062C205.445 20.2604 205.661 20.0443 205.812 19.7578C205.964 19.4766 206.039 19.1354 206.039 18.7344V12.5L206.258 10.5469ZM200.57 14.875V14.7109C200.57 14.0651 200.648 13.4792 200.805 12.9531C200.966 12.4219 201.193 11.9661 201.484 11.5859C201.781 11.2057 202.141 10.9115 202.562 10.7031C202.984 10.4948 203.461 10.3906 203.992 10.3906C204.555 10.3906 205.026 10.4948 205.406 10.7031C205.786 10.9115 206.099 11.2083 206.344 11.5938C206.589 11.974 206.779 12.4245 206.914 12.9453C207.055 13.4609 207.164 14.026 207.242 14.6406V15C207.164 15.5885 207.047 16.1354 206.891 16.6406C206.734 17.1458 206.529 17.5885 206.273 17.9688C206.018 18.3438 205.701 18.6354 205.32 18.8438C204.945 19.0521 204.497 19.1562 203.977 19.1562C203.456 19.1562 202.984 19.0495 202.562 18.8359C202.146 18.6224 201.789 18.3229 201.492 17.9375C201.195 17.5521 200.966 17.099 200.805 16.5781C200.648 16.0573 200.57 15.4896 200.57 14.875ZM202.82 14.7109V14.875C202.82 15.224 202.854 15.5495 202.922 15.8516C202.99 16.1536 203.094 16.4219 203.234 16.6562C203.38 16.8854 203.56 17.0651 203.773 17.1953C203.992 17.3203 204.25 17.3828 204.547 17.3828C204.958 17.3828 205.294 17.2969 205.555 17.125C205.815 16.9479 206.01 16.7057 206.141 16.3984C206.271 16.0911 206.346 15.737 206.367 15.3359V14.3125C206.357 13.9844 206.312 13.6901 206.234 13.4297C206.156 13.1641 206.047 12.9375 205.906 12.75C205.766 12.5625 205.583 12.4167 205.359 12.3125C205.135 12.2083 204.87 12.1562 204.562 12.1562C204.266 12.1562 204.008 12.224 203.789 12.3594C203.576 12.4896 203.396 12.6693 203.25 12.8984C203.109 13.1276 203.003 13.3984 202.93 13.7109C202.857 14.0182 202.82 14.3516 202.82 14.7109ZM212.25 12.3516V19H210V10.5469H212.109L212.25 12.3516ZM211.922 14.4766H211.312C211.312 13.8516 211.393 13.2891 211.555 12.7891C211.716 12.2839 211.943 11.8542 212.234 11.5C212.526 11.1406 212.872 10.8672 213.273 10.6797C213.68 10.487 214.133 10.3906 214.633 10.3906C215.029 10.3906 215.391 10.4479 215.719 10.5625C216.047 10.6771 216.328 10.8594 216.562 11.1094C216.802 11.3594 216.984 11.6901 217.109 12.1016C217.24 12.513 217.305 13.0156 217.305 13.6094V19H215.039V13.6016C215.039 13.2266 214.987 12.9349 214.883 12.7266C214.779 12.5182 214.625 12.3724 214.422 12.2891C214.224 12.2005 213.979 12.1562 213.688 12.1562C213.385 12.1562 213.122 12.2161 212.898 12.3359C212.68 12.4557 212.497 12.6224 212.352 12.8359C212.211 13.0443 212.104 13.2891 212.031 13.5703C211.958 13.8516 211.922 14.1536 211.922 14.4766Z" fill="black"/>
</svg>
