<svg width="306" height="29" viewBox="0 0 306 29" fill="none" xmlns="http://www.w3.org/2000/svg">
<rect y="11" width="7" height="7" fill="black"/>
<path d="M23.9375 16.0234C23.9375 15.8203 23.9062 15.638 23.8438 15.4766C23.7865 15.3099 23.6771 15.1589 23.5156 15.0234C23.3542 14.8828 23.1276 14.7448 22.8359 14.6094C22.5443 14.474 22.1667 14.3333 21.7031 14.1875C21.1875 14.0208 20.6979 13.8333 20.2344 13.625C19.776 13.4167 19.3698 13.1745 19.0156 12.8984C18.6667 12.6172 18.3906 12.2917 18.1875 11.9219C17.9896 11.5521 17.8906 11.1224 17.8906 10.6328C17.8906 10.1589 17.9948 9.72917 18.2031 9.34375C18.4115 8.95312 18.7031 8.61979 19.0781 8.34375C19.4531 8.0625 19.8958 7.84635 20.4062 7.69531C20.9219 7.54427 21.487 7.46875 22.1016 7.46875C22.9401 7.46875 23.6719 7.61979 24.2969 7.92188C24.9219 8.22396 25.4062 8.63802 25.75 9.16406C26.099 9.6901 26.2734 10.2917 26.2734 10.9688H23.9453C23.9453 10.6354 23.875 10.3438 23.7344 10.0938C23.599 9.83854 23.3906 9.63802 23.1094 9.49219C22.8333 9.34635 22.4844 9.27344 22.0625 9.27344C21.6562 9.27344 21.3177 9.33594 21.0469 9.46094C20.776 9.58073 20.5729 9.74479 20.4375 9.95312C20.3021 10.1562 20.2344 10.3854 20.2344 10.6406C20.2344 10.8333 20.2812 11.0078 20.375 11.1641C20.474 11.3203 20.6198 11.4661 20.8125 11.6016C21.0052 11.737 21.2422 11.8646 21.5234 11.9844C21.8047 12.1042 22.1302 12.2214 22.5 12.3359C23.1198 12.5234 23.6641 12.7344 24.1328 12.9688C24.6068 13.2031 25.0026 13.4661 25.3203 13.7578C25.638 14.0495 25.8776 14.3802 26.0391 14.75C26.2005 15.1198 26.2812 15.5391 26.2812 16.0078C26.2812 16.5026 26.1849 16.9453 25.9922 17.3359C25.7995 17.7266 25.5208 18.0573 25.1562 18.3281C24.7917 18.599 24.3568 18.8047 23.8516 18.9453C23.3464 19.0859 22.7812 19.1562 22.1562 19.1562C21.5938 19.1562 21.0391 19.0833 20.4922 18.9375C19.9453 18.7865 19.4479 18.5599 19 18.2578C18.5573 17.9557 18.2031 17.5703 17.9375 17.1016C17.6719 16.6328 17.5391 16.0781 17.5391 15.4375H19.8906C19.8906 15.7917 19.9453 16.0911 20.0547 16.3359C20.1641 16.5807 20.3177 16.7786 20.5156 16.9297C20.7188 17.0807 20.9583 17.1901 21.2344 17.2578C21.5156 17.3255 21.8229 17.3594 22.1562 17.3594C22.5625 17.3594 22.8958 17.3021 23.1562 17.1875C23.4219 17.0729 23.6172 16.9141 23.7422 16.7109C23.8724 16.5078 23.9375 16.2786 23.9375 16.0234ZM29.9844 6.99219V19H27.7344V6.99219H29.9844ZM35.3125 10.5469L31.6406 14.7344L29.6719 16.7266L28.8516 15.1016L30.4141 13.1172L32.6094 10.5469H35.3125ZM32.9766 19L30.4766 15.0938L32.0312 13.7344L35.5703 19H32.9766ZM40.0156 19.1562C39.3594 19.1562 38.7708 19.0521 38.25 18.8438C37.7292 18.6302 37.2865 18.3359 36.9219 17.9609C36.5625 17.5859 36.2865 17.151 36.0938 16.6562C35.901 16.1562 35.8047 15.625 35.8047 15.0625V14.75C35.8047 14.1094 35.8958 13.5234 36.0781 12.9922C36.2604 12.4609 36.5208 12 36.8594 11.6094C37.2031 11.2188 37.6198 10.9193 38.1094 10.7109C38.599 10.4974 39.151 10.3906 39.7656 10.3906C40.3646 10.3906 40.8958 10.4896 41.3594 10.6875C41.8229 10.8854 42.2109 11.1667 42.5234 11.5312C42.8411 11.8958 43.0807 12.3333 43.2422 12.8438C43.4036 13.349 43.4844 13.9115 43.4844 14.5312V15.4688H36.7656V13.9688H41.2734V13.7969C41.2734 13.4844 41.2161 13.2057 41.1016 12.9609C40.9922 12.7109 40.8255 12.513 40.6016 12.3672C40.3776 12.2214 40.0911 12.1484 39.7422 12.1484C39.4453 12.1484 39.1901 12.2135 38.9766 12.3438C38.763 12.474 38.5885 12.6562 38.4531 12.8906C38.3229 13.125 38.224 13.401 38.1562 13.7188C38.0938 14.0312 38.0625 14.375 38.0625 14.75V15.0625C38.0625 15.401 38.1094 15.7135 38.2031 16C38.3021 16.2865 38.4401 16.5339 38.6172 16.7422C38.7995 16.9505 39.0182 17.112 39.2734 17.2266C39.5339 17.3411 39.8281 17.3984 40.1562 17.3984C40.5625 17.3984 40.9401 17.3203 41.2891 17.1641C41.6432 17.0026 41.9479 16.7604 42.2031 16.4375L43.2969 17.625C43.1198 17.8802 42.8776 18.125 42.5703 18.3594C42.2682 18.5938 41.9036 18.7865 41.4766 18.9375C41.0495 19.0833 40.5625 19.1562 40.0156 19.1562ZM48.9062 10.5469V12.1406H43.9844V10.5469H48.9062ZM45.2031 8.46094H47.4531V16.4531C47.4531 16.6979 47.4844 16.8854 47.5469 17.0156C47.6146 17.1458 47.7135 17.237 47.8438 17.2891C47.974 17.3359 48.138 17.3594 48.3359 17.3594C48.4766 17.3594 48.6016 17.3542 48.7109 17.3438C48.8255 17.3281 48.9219 17.3125 49 17.2969L49.0078 18.9531C48.8151 19.0156 48.6068 19.0651 48.3828 19.1016C48.1589 19.138 47.9115 19.1562 47.6406 19.1562C47.1458 19.1562 46.7135 19.0755 46.3438 18.9141C45.9792 18.7474 45.6979 18.4818 45.5 18.1172C45.3021 17.7526 45.2031 17.2734 45.2031 16.6797V8.46094ZM53.6797 17.3984C53.9557 17.3984 54.2005 17.3464 54.4141 17.2422C54.6276 17.1328 54.7943 16.9818 54.9141 16.7891C55.0391 16.5911 55.1042 16.3594 55.1094 16.0938H57.2266C57.2214 16.6875 57.0625 17.2161 56.75 17.6797C56.4375 18.138 56.0182 18.5 55.4922 18.7656C54.9661 19.026 54.3776 19.1562 53.7266 19.1562C53.0703 19.1562 52.4974 19.0469 52.0078 18.8281C51.5234 18.6094 51.1198 18.3073 50.7969 17.9219C50.474 17.5312 50.2318 17.0781 50.0703 16.5625C49.9089 16.0417 49.8281 15.4844 49.8281 14.8906V14.6641C49.8281 14.0651 49.9089 13.5078 50.0703 12.9922C50.2318 12.4714 50.474 12.0182 50.7969 11.6328C51.1198 11.2422 51.5234 10.9375 52.0078 10.7188C52.4922 10.5 53.0599 10.3906 53.7109 10.3906C54.4036 10.3906 55.0104 10.5234 55.5312 10.7891C56.0573 11.0547 56.4688 11.4349 56.7656 11.9297C57.0677 12.4193 57.2214 13 57.2266 13.6719H55.1094C55.1042 13.3906 55.0443 13.1354 54.9297 12.9062C54.8203 12.6771 54.6589 12.4948 54.4453 12.3594C54.237 12.2188 53.9792 12.1484 53.6719 12.1484C53.3438 12.1484 53.0755 12.2188 52.8672 12.3594C52.6589 12.4948 52.4974 12.6823 52.3828 12.9219C52.2682 13.1562 52.1875 13.4245 52.1406 13.7266C52.099 14.0234 52.0781 14.3359 52.0781 14.6641V14.8906C52.0781 15.2188 52.099 15.5339 52.1406 15.8359C52.1823 16.138 52.2604 16.4062 52.375 16.6406C52.4948 16.875 52.6589 17.0599 52.8672 17.1953C53.0755 17.3307 53.3464 17.3984 53.6797 17.3984ZM60.7266 7V19H58.4766V7H60.7266ZM60.4062 14.4766H59.7891C59.7943 13.888 59.8724 13.3464 60.0234 12.8516C60.1745 12.3516 60.3906 11.9193 60.6719 11.5547C60.9531 11.1849 61.2891 10.8984 61.6797 10.6953C62.0755 10.4922 62.513 10.3906 62.9922 10.3906C63.4089 10.3906 63.7865 10.4505 64.125 10.5703C64.4688 10.6849 64.763 10.8724 65.0078 11.1328C65.2578 11.388 65.4505 11.724 65.5859 12.1406C65.7214 12.5573 65.7891 13.0625 65.7891 13.6562V19H63.5234V13.6406C63.5234 13.2656 63.4688 12.9714 63.3594 12.7578C63.2552 12.5391 63.1016 12.3854 62.8984 12.2969C62.7005 12.2031 62.4557 12.1562 62.1641 12.1562C61.8411 12.1562 61.5651 12.2161 61.3359 12.3359C61.112 12.4557 60.9323 12.6224 60.7969 12.8359C60.6615 13.0443 60.5625 13.2891 60.5 13.5703C60.4375 13.8516 60.4062 14.1536 60.4062 14.4766Z" fill="black"/>
</svg>
