<svg width="306" height="29" viewBox="0 0 306 29" fill="none" xmlns="http://www.w3.org/2000/svg">
<rect y="11" width="7" height="7" fill="black"/>
<path d="M20.7578 17.1953L23.0234 7.625H24.2891L24.5781 9.21875L22.1641 19H20.8047L20.7578 17.1953ZM19.5938 7.625L21.4688 17.1953L21.3125 19H19.7969L17.2734 7.625H19.5938ZM26.5703 17.1562L28.4219 7.625H30.7422L28.2266 19H26.7109L26.5703 17.1562ZM25 7.625L27.2812 17.2344L27.2188 19H25.8594L23.4297 9.21094L23.7422 7.625H25ZM35.5156 19.1562C34.8594 19.1562 34.2708 19.0521 33.75 18.8438C33.2292 18.6302 32.7865 18.3359 32.4219 17.9609C32.0625 17.5859 31.7865 17.151 31.5938 16.6562C31.401 16.1562 31.3047 15.625 31.3047 15.0625V14.75C31.3047 14.1094 31.3958 13.5234 31.5781 12.9922C31.7604 12.4609 32.0208 12 32.3594 11.6094C32.7031 11.2188 33.1198 10.9193 33.6094 10.7109C34.099 10.4974 34.651 10.3906 35.2656 10.3906C35.8646 10.3906 36.3958 10.4896 36.8594 10.6875C37.3229 10.8854 37.7109 11.1667 38.0234 11.5312C38.3411 11.8958 38.5807 12.3333 38.7422 12.8438C38.9036 13.349 38.9844 13.9115 38.9844 14.5312V15.4688H32.2656V13.9688H36.7734V13.7969C36.7734 13.4844 36.7161 13.2057 36.6016 12.9609C36.4922 12.7109 36.3255 12.513 36.1016 12.3672C35.8776 12.2214 35.5911 12.1484 35.2422 12.1484C34.9453 12.1484 34.6901 12.2135 34.4766 12.3438C34.263 12.474 34.0885 12.6562 33.9531 12.8906C33.8229 13.125 33.724 13.401 33.6562 13.7188C33.5938 14.0312 33.5625 14.375 33.5625 14.75V15.0625C33.5625 15.401 33.6094 15.7135 33.7031 16C33.8021 16.2865 33.9401 16.5339 34.1172 16.7422C34.2995 16.9505 34.5182 17.112 34.7734 17.2266C35.0339 17.3411 35.3281 17.3984 35.6562 17.3984C36.0625 17.3984 36.4401 17.3203 36.7891 17.1641C37.1432 17.0026 37.4479 16.7604 37.7031 16.4375L38.7969 17.625C38.6198 17.8802 38.3776 18.125 38.0703 18.3594C37.7682 18.5938 37.4036 18.7865 36.9766 18.9375C36.5495 19.0833 36.0625 19.1562 35.5156 19.1562ZM40.2656 7H42.5156V17.0625L42.2891 19H40.2656V7ZM47.8672 14.6875V14.8516C47.8672 15.4818 47.7995 16.0599 47.6641 16.5859C47.5339 17.112 47.3307 17.5677 47.0547 17.9531C46.7786 18.3333 46.4349 18.6302 46.0234 18.8438C45.6172 19.0521 45.138 19.1562 44.5859 19.1562C44.0703 19.1562 43.6224 19.0521 43.2422 18.8438C42.8672 18.6354 42.5521 18.3411 42.2969 17.9609C42.0417 17.5807 41.8359 17.1354 41.6797 16.625C41.5234 16.1146 41.4062 15.5573 41.3281 14.9531V14.5938C41.4062 13.9896 41.5234 13.4323 41.6797 12.9219C41.8359 12.4115 42.0417 11.9661 42.2969 11.5859C42.5521 11.2057 42.8672 10.9115 43.2422 10.7031C43.6172 10.4948 44.0599 10.3906 44.5703 10.3906C45.1276 10.3906 45.612 10.4974 46.0234 10.7109C46.4401 10.9193 46.7839 11.2161 47.0547 11.6016C47.3307 11.9818 47.5339 12.4349 47.6641 12.9609C47.7995 13.4818 47.8672 14.0573 47.8672 14.6875ZM45.6172 14.8516V14.6875C45.6172 14.3438 45.5911 14.0208 45.5391 13.7188C45.4922 13.4115 45.4089 13.1432 45.2891 12.9141C45.1693 12.6797 45.0052 12.4948 44.7969 12.3594C44.5938 12.224 44.3307 12.1562 44.0078 12.1562C43.7005 12.1562 43.4401 12.2083 43.2266 12.3125C43.013 12.4167 42.8359 12.5625 42.6953 12.75C42.5599 12.9375 42.4583 13.1615 42.3906 13.4219C42.3229 13.6771 42.2812 13.9583 42.2656 14.2656V15.2891C42.2812 15.7005 42.349 16.0651 42.4688 16.3828C42.5938 16.6953 42.7812 16.9427 43.0312 17.125C43.2865 17.3021 43.6172 17.3906 44.0234 17.3906C44.3411 17.3906 44.6042 17.3281 44.8125 17.2031C45.0208 17.0781 45.1823 16.901 45.2969 16.6719C45.4167 16.4427 45.5 16.1745 45.5469 15.8672C45.5938 15.5547 45.6172 15.2161 45.6172 14.8516ZM52.1328 19H49.8672V9.89844C49.8672 9.23698 50.0052 8.67969 50.2812 8.22656C50.5573 7.76823 50.9557 7.42188 51.4766 7.1875C51.9974 6.95312 52.625 6.83594 53.3594 6.83594C53.6667 6.83594 54.0495 6.85156 54.5078 6.88281C54.9714 6.90885 55.4427 6.94271 55.9219 6.98438C56.4062 7.02083 56.8307 7.0599 57.1953 7.10156L56.2578 8.875C55.7891 8.79167 55.3385 8.72656 54.9062 8.67969C54.474 8.63281 54.0625 8.60938 53.6719 8.60938C53.3385 8.60938 53.0573 8.65885 52.8281 8.75781C52.599 8.85677 52.4245 9.0026 52.3047 9.19531C52.1901 9.38281 52.1328 9.61719 52.1328 9.89844V19ZM54.9453 19V7.10156H57.1953V19H54.9453ZM53.8203 10.5469V12.1406H48.6094V10.5469H53.8203ZM58.7188 14.8594V14.6953C58.7188 14.0755 58.8073 13.5052 58.9844 12.9844C59.1615 12.4583 59.4193 12.0026 59.7578 11.6172C60.0964 11.2318 60.513 10.9323 61.0078 10.7188C61.5026 10.5 62.0703 10.3906 62.7109 10.3906C63.3516 10.3906 63.9219 10.5 64.4219 10.7188C64.9219 10.9323 65.3411 11.2318 65.6797 11.6172C66.0234 12.0026 66.2839 12.4583 66.4609 12.9844C66.638 13.5052 66.7266 14.0755 66.7266 14.6953V14.8594C66.7266 15.474 66.638 16.0443 66.4609 16.5703C66.2839 17.0911 66.0234 17.5469 65.6797 17.9375C65.3411 18.3229 64.9245 18.6224 64.4297 18.8359C63.9349 19.0495 63.3672 19.1562 62.7266 19.1562C62.0859 19.1562 61.5156 19.0495 61.0156 18.8359C60.5208 18.6224 60.1016 18.3229 59.7578 17.9375C59.4193 17.5469 59.1615 17.0911 58.9844 16.5703C58.8073 16.0443 58.7188 15.474 58.7188 14.8594ZM60.9688 14.6953V14.8594C60.9688 15.2135 61 15.5443 61.0625 15.8516C61.125 16.1589 61.224 16.4297 61.3594 16.6641C61.5 16.8932 61.6823 17.0729 61.9062 17.2031C62.1302 17.3333 62.4036 17.3984 62.7266 17.3984C63.0391 17.3984 63.3073 17.3333 63.5312 17.2031C63.7552 17.0729 63.9349 16.8932 64.0703 16.6641C64.2057 16.4297 64.3047 16.1589 64.3672 15.8516C64.4349 15.5443 64.4688 15.2135 64.4688 14.8594V14.6953C64.4688 14.3516 64.4349 14.0286 64.3672 13.7266C64.3047 13.4193 64.2031 13.1484 64.0625 12.9141C63.9271 12.6745 63.7474 12.487 63.5234 12.3516C63.2995 12.2161 63.0286 12.1484 62.7109 12.1484C62.3932 12.1484 62.1224 12.2161 61.8984 12.3516C61.6797 12.487 61.5 12.6745 61.3594 12.9141C61.224 13.1484 61.125 13.4193 61.0625 13.7266C61 14.0286 60.9688 14.3516 60.9688 14.6953ZM70.5234 16.8125L72.2812 10.5469H73.7109L73.25 13.0078L71.4922 19H70.2969L70.5234 16.8125ZM69.6328 10.5469L70.8906 16.8047L71.0078 19H69.6016L67.4609 10.5469H69.6328ZM75.3203 16.7031L76.5469 10.5469H78.7266L76.5859 19H75.1875L75.3203 16.7031ZM73.9062 10.5469L75.6562 16.7656L75.8984 19H74.6953L72.9375 13.0156L72.4922 10.5469H73.9062Z" fill="black"/>
</svg>
