<svg width="306" height="29" viewBox="0 0 306 29" fill="none" xmlns="http://www.w3.org/2000/svg">
<rect y="11" width="7" height="7" fill="black"/>
<path d="M21.5078 19H19.0312L19.0469 17.1719H21.5078C22.1224 17.1719 22.6406 17.0339 23.0625 16.7578C23.4844 16.4766 23.8021 16.0677 24.0156 15.5312C24.2344 14.9948 24.3438 14.3464 24.3438 13.5859V13.0312C24.3438 12.4479 24.2812 11.9349 24.1562 11.4922C24.0365 11.0495 23.8568 10.6771 23.6172 10.375C23.3776 10.0729 23.0833 9.84635 22.7344 9.69531C22.3854 9.53906 21.9844 9.46094 21.5312 9.46094H18.9844V7.625H21.5312C22.2917 7.625 22.987 7.75521 23.6172 8.01562C24.2526 8.27083 24.8021 8.63802 25.2656 9.11719C25.7292 9.59635 26.0859 10.1693 26.3359 10.8359C26.5911 11.4974 26.7188 12.2344 26.7188 13.0469V13.5859C26.7188 14.3932 26.5911 15.1302 26.3359 15.7969C26.0859 16.4635 25.7292 17.0365 25.2656 17.5156C24.8073 17.9896 24.2578 18.3568 23.6172 18.6172C22.9818 18.8724 22.2786 19 21.5078 19ZM20.3594 7.625V19H18.0156V7.625H20.3594ZM32.1719 19.1562C31.5156 19.1562 30.9271 19.0521 30.4062 18.8438C29.8854 18.6302 29.4427 18.3359 29.0781 17.9609C28.7188 17.5859 28.4427 17.151 28.25 16.6562C28.0573 16.1562 27.9609 15.625 27.9609 15.0625V14.75C27.9609 14.1094 28.0521 13.5234 28.2344 12.9922C28.4167 12.4609 28.6771 12 29.0156 11.6094C29.3594 11.2188 29.776 10.9193 30.2656 10.7109C30.7552 10.4974 31.3073 10.3906 31.9219 10.3906C32.5208 10.3906 33.0521 10.4896 33.5156 10.6875C33.9792 10.8854 34.3672 11.1667 34.6797 11.5312C34.9974 11.8958 35.237 12.3333 35.3984 12.8438C35.5599 13.349 35.6406 13.9115 35.6406 14.5312V15.4688H28.9219V13.9688H33.4297V13.7969C33.4297 13.4844 33.3724 13.2057 33.2578 12.9609C33.1484 12.7109 32.9818 12.513 32.7578 12.3672C32.5339 12.2214 32.2474 12.1484 31.8984 12.1484C31.6016 12.1484 31.3464 12.2135 31.1328 12.3438C30.9193 12.474 30.7448 12.6562 30.6094 12.8906C30.4792 13.125 30.3802 13.401 30.3125 13.7188C30.25 14.0312 30.2188 14.375 30.2188 14.75V15.0625C30.2188 15.401 30.2656 15.7135 30.3594 16C30.4583 16.2865 30.5964 16.5339 30.7734 16.7422C30.9557 16.9505 31.1745 17.112 31.4297 17.2266C31.6901 17.3411 31.9844 17.3984 32.3125 17.3984C32.7188 17.3984 33.0964 17.3203 33.4453 17.1641C33.7995 17.0026 34.1042 16.7604 34.3594 16.4375L35.4531 17.625C35.276 17.8802 35.0339 18.125 34.7266 18.3594C34.4245 18.5938 34.0599 18.7865 33.6328 18.9375C33.2057 19.0833 32.7188 19.1562 32.1719 19.1562ZM41.4922 16.6641C41.4922 16.5026 41.4453 16.3568 41.3516 16.2266C41.2578 16.0964 41.0833 15.9766 40.8281 15.8672C40.5781 15.7526 40.2161 15.6484 39.7422 15.5547C39.3151 15.4609 38.9167 15.3438 38.5469 15.2031C38.1823 15.0573 37.8646 14.8828 37.5938 14.6797C37.3281 14.4766 37.1198 14.237 36.9688 13.9609C36.8177 13.6797 36.7422 13.3594 36.7422 13C36.7422 12.6458 36.8177 12.3125 36.9688 12C37.125 11.6875 37.3464 11.4115 37.6328 11.1719C37.9245 10.9271 38.2786 10.737 38.6953 10.6016C39.1172 10.4609 39.5911 10.3906 40.1172 10.3906C40.8516 10.3906 41.4818 10.5078 42.0078 10.7422C42.5391 10.9766 42.9453 11.2995 43.2266 11.7109C43.513 12.1172 43.6562 12.5807 43.6562 13.1016H41.4062C41.4062 12.8828 41.3594 12.6875 41.2656 12.5156C41.1771 12.3385 41.0365 12.2005 40.8438 12.1016C40.6562 11.9974 40.4115 11.9453 40.1094 11.9453C39.8594 11.9453 39.6432 11.9896 39.4609 12.0781C39.2786 12.1615 39.138 12.276 39.0391 12.4219C38.9453 12.5625 38.8984 12.7188 38.8984 12.8906C38.8984 13.0208 38.9245 13.138 38.9766 13.2422C39.0339 13.3411 39.125 13.4323 39.25 13.5156C39.375 13.599 39.5365 13.6771 39.7344 13.75C39.9375 13.8177 40.1875 13.8802 40.4844 13.9375C41.0938 14.0625 41.638 14.2266 42.1172 14.4297C42.5964 14.6276 42.9766 14.8984 43.2578 15.2422C43.5391 15.5807 43.6797 16.026 43.6797 16.5781C43.6797 16.9531 43.5964 17.2969 43.4297 17.6094C43.263 17.9219 43.0234 18.1953 42.7109 18.4297C42.3984 18.6589 42.0234 18.8385 41.5859 18.9688C41.1536 19.0938 40.6667 19.1562 40.125 19.1562C39.3385 19.1562 38.6719 19.0156 38.125 18.7344C37.5833 18.4531 37.1719 18.0964 36.8906 17.6641C36.6146 17.2266 36.4766 16.7786 36.4766 16.3203H38.6094C38.6198 16.6276 38.6979 16.875 38.8438 17.0625C38.9948 17.25 39.1849 17.3854 39.4141 17.4688C39.6484 17.5521 39.901 17.5938 40.1719 17.5938C40.4635 17.5938 40.7057 17.5547 40.8984 17.4766C41.0911 17.3932 41.237 17.2839 41.3359 17.1484C41.4401 17.0078 41.4922 16.8464 41.4922 16.6641ZM47.5156 10.5469V19H45.2578V10.5469H47.5156ZM45.1172 8.34375C45.1172 8.01562 45.2318 7.74479 45.4609 7.53125C45.6901 7.31771 45.9974 7.21094 46.3828 7.21094C46.763 7.21094 47.0677 7.31771 47.2969 7.53125C47.5312 7.74479 47.6484 8.01562 47.6484 8.34375C47.6484 8.67188 47.5312 8.94271 47.2969 9.15625C47.0677 9.36979 46.763 9.47656 46.3828 9.47656C45.9974 9.47656 45.6901 9.36979 45.4609 9.15625C45.2318 8.94271 45.1172 8.67188 45.1172 8.34375ZM54.7266 10.5469H56.7656V18.7188C56.7656 19.4896 56.5938 20.1432 56.25 20.6797C55.9115 21.2214 55.4375 21.6302 54.8281 21.9062C54.2188 22.1875 53.5104 22.3281 52.7031 22.3281C52.349 22.3281 51.974 22.2812 51.5781 22.1875C51.1875 22.0938 50.8125 21.9479 50.4531 21.75C50.099 21.5521 49.8021 21.3021 49.5625 21L50.5547 19.6719C50.8151 19.974 51.1172 20.2083 51.4609 20.375C51.8047 20.5469 52.1849 20.6328 52.6016 20.6328C53.0078 20.6328 53.3516 20.5573 53.6328 20.4062C53.9141 20.2604 54.1302 20.0443 54.2812 19.7578C54.4323 19.4766 54.5078 19.1354 54.5078 18.7344V12.5L54.7266 10.5469ZM49.0391 14.875V14.7109C49.0391 14.0651 49.1172 13.4792 49.2734 12.9531C49.4349 12.4219 49.6615 11.9661 49.9531 11.5859C50.25 11.2057 50.6094 10.9115 51.0312 10.7031C51.4531 10.4948 51.9297 10.3906 52.4609 10.3906C53.0234 10.3906 53.4948 10.4948 53.875 10.7031C54.2552 10.9115 54.5677 11.2083 54.8125 11.5938C55.0573 11.974 55.2474 12.4245 55.3828 12.9453C55.5234 13.4609 55.6328 14.026 55.7109 14.6406V15C55.6328 15.5885 55.5156 16.1354 55.3594 16.6406C55.2031 17.1458 54.9974 17.5885 54.7422 17.9688C54.487 18.3438 54.1693 18.6354 53.7891 18.8438C53.4141 19.0521 52.9661 19.1562 52.4453 19.1562C51.9245 19.1562 51.4531 19.0495 51.0312 18.8359C50.6146 18.6224 50.2578 18.3229 49.9609 17.9375C49.6641 17.5521 49.4349 17.099 49.2734 16.5781C49.1172 16.0573 49.0391 15.4896 49.0391 14.875ZM51.2891 14.7109V14.875C51.2891 15.224 51.3229 15.5495 51.3906 15.8516C51.4583 16.1536 51.5625 16.4219 51.7031 16.6562C51.849 16.8854 52.0286 17.0651 52.2422 17.1953C52.4609 17.3203 52.7188 17.3828 53.0156 17.3828C53.4271 17.3828 53.763 17.2969 54.0234 17.125C54.2839 16.9479 54.4792 16.7057 54.6094 16.3984C54.7396 16.0911 54.8151 15.737 54.8359 15.3359V14.3125C54.8255 13.9844 54.7812 13.6901 54.7031 13.4297C54.625 13.1641 54.5156 12.9375 54.375 12.75C54.2344 12.5625 54.0521 12.4167 53.8281 12.3125C53.6042 12.2083 53.3385 12.1562 53.0312 12.1562C52.7344 12.1562 52.4766 12.224 52.2578 12.3594C52.0443 12.4896 51.8646 12.6693 51.7188 12.8984C51.5781 13.1276 51.4714 13.3984 51.3984 13.7109C51.3255 14.0182 51.2891 14.3516 51.2891 14.7109ZM60.7188 12.3516V19H58.4688V10.5469H60.5781L60.7188 12.3516ZM60.3906 14.4766H59.7812C59.7812 13.8516 59.862 13.2891 60.0234 12.7891C60.1849 12.2839 60.4115 11.8542 60.7031 11.5C60.9948 11.1406 61.3411 10.8672 61.7422 10.6797C62.1484 10.487 62.6016 10.3906 63.1016 10.3906C63.4974 10.3906 63.8594 10.4479 64.1875 10.5625C64.5156 10.6771 64.7969 10.8594 65.0312 11.1094C65.2708 11.3594 65.4531 11.6901 65.5781 12.1016C65.7083 12.513 65.7734 13.0156 65.7734 13.6094V19H63.5078V13.6016C63.5078 13.2266 63.4557 12.9349 63.3516 12.7266C63.2474 12.5182 63.0938 12.3724 62.8906 12.2891C62.6927 12.2005 62.4479 12.1562 62.1562 12.1562C61.8542 12.1562 61.5911 12.2161 61.3672 12.3359C61.1484 12.4557 60.9661 12.6224 60.8203 12.8359C60.6797 13.0443 60.5729 13.2891 60.5 13.5703C60.4271 13.8516 60.3906 14.1536 60.3906 14.4766ZM77.5312 16.0234C77.5312 15.8203 77.5 15.638 77.4375 15.4766C77.3802 15.3099 77.2708 15.1589 77.1094 15.0234C76.9479 14.8828 76.7214 14.7448 76.4297 14.6094C76.138 14.474 75.7604 14.3333 75.2969 14.1875C74.7812 14.0208 74.2917 13.8333 73.8281 13.625C73.3698 13.4167 72.9635 13.1745 72.6094 12.8984C72.2604 12.6172 71.9844 12.2917 71.7812 11.9219C71.5833 11.5521 71.4844 11.1224 71.4844 10.6328C71.4844 10.1589 71.5885 9.72917 71.7969 9.34375C72.0052 8.95312 72.2969 8.61979 72.6719 8.34375C73.0469 8.0625 73.4896 7.84635 74 7.69531C74.5156 7.54427 75.0807 7.46875 75.6953 7.46875C76.5339 7.46875 77.2656 7.61979 77.8906 7.92188C78.5156 8.22396 79 8.63802 79.3438 9.16406C79.6927 9.6901 79.8672 10.2917 79.8672 10.9688H77.5391C77.5391 10.6354 77.4688 10.3438 77.3281 10.0938C77.1927 9.83854 76.9844 9.63802 76.7031 9.49219C76.4271 9.34635 76.0781 9.27344 75.6562 9.27344C75.25 9.27344 74.9115 9.33594 74.6406 9.46094C74.3698 9.58073 74.1667 9.74479 74.0312 9.95312C73.8958 10.1562 73.8281 10.3854 73.8281 10.6406C73.8281 10.8333 73.875 11.0078 73.9688 11.1641C74.0677 11.3203 74.2135 11.4661 74.4062 11.6016C74.599 11.737 74.8359 11.8646 75.1172 11.9844C75.3984 12.1042 75.724 12.2214 76.0938 12.3359C76.7135 12.5234 77.2578 12.7344 77.7266 12.9688C78.2005 13.2031 78.5964 13.4661 78.9141 13.7578C79.2318 14.0495 79.4714 14.3802 79.6328 14.75C79.7943 15.1198 79.875 15.5391 79.875 16.0078C79.875 16.5026 79.7786 16.9453 79.5859 17.3359C79.3932 17.7266 79.1146 18.0573 78.75 18.3281C78.3854 18.599 77.9505 18.8047 77.4453 18.9453C76.9401 19.0859 76.375 19.1562 75.75 19.1562C75.1875 19.1562 74.6328 19.0833 74.0859 18.9375C73.5391 18.7865 73.0417 18.5599 72.5938 18.2578C72.151 17.9557 71.7969 17.5703 71.5312 17.1016C71.2656 16.6328 71.1328 16.0781 71.1328 15.4375H73.4844C73.4844 15.7917 73.5391 16.0911 73.6484 16.3359C73.7578 16.5807 73.9115 16.7786 74.1094 16.9297C74.3125 17.0807 74.5521 17.1901 74.8281 17.2578C75.1094 17.3255 75.4167 17.3594 75.75 17.3594C76.1562 17.3594 76.4896 17.3021 76.75 17.1875C77.0156 17.0729 77.2109 16.9141 77.3359 16.7109C77.4661 16.5078 77.5312 16.2786 77.5312 16.0234ZM85.4688 10.5469V12.1406H80.5469V10.5469H85.4688ZM81.7656 8.46094H84.0156V16.4531C84.0156 16.6979 84.0469 16.8854 84.1094 17.0156C84.1771 17.1458 84.276 17.237 84.4062 17.2891C84.5365 17.3359 84.7005 17.3594 84.8984 17.3594C85.0391 17.3594 85.1641 17.3542 85.2734 17.3438C85.388 17.3281 85.4844 17.3125 85.5625 17.2969L85.5703 18.9531C85.3776 19.0156 85.1693 19.0651 84.9453 19.1016C84.7214 19.138 84.474 19.1562 84.2031 19.1562C83.7083 19.1562 83.276 19.0755 82.9062 18.9141C82.5417 18.7474 82.2604 18.4818 82.0625 18.1172C81.8646 17.7526 81.7656 17.2734 81.7656 16.6797V8.46094ZM89 12.3906V19H86.75V10.5469H88.8672L89 12.3906ZM91.5469 10.4922L91.5078 12.5781C91.3984 12.5625 91.2656 12.5495 91.1094 12.5391C90.9583 12.5234 90.8203 12.5156 90.6953 12.5156C90.3776 12.5156 90.1016 12.5573 89.8672 12.6406C89.638 12.7188 89.4453 12.8359 89.2891 12.9922C89.138 13.1484 89.0234 13.3385 88.9453 13.5625C88.8724 13.7865 88.8307 14.0417 88.8203 14.3281L88.3672 14.1875C88.3672 13.6406 88.4219 13.138 88.5312 12.6797C88.6406 12.2161 88.7995 11.8125 89.0078 11.4688C89.2214 11.125 89.4818 10.8594 89.7891 10.6719C90.0964 10.4844 90.4479 10.3906 90.8438 10.3906C90.9688 10.3906 91.0964 10.401 91.2266 10.4219C91.3568 10.4375 91.4635 10.4609 91.5469 10.4922ZM96.9062 17.0938V13.3281C96.9062 13.0573 96.862 12.8255 96.7734 12.6328C96.6849 12.4349 96.5469 12.2812 96.3594 12.1719C96.1771 12.0625 95.9401 12.0078 95.6484 12.0078C95.3984 12.0078 95.1823 12.0521 95 12.1406C94.8177 12.224 94.6771 12.3464 94.5781 12.5078C94.4792 12.6641 94.4297 12.849 94.4297 13.0625H92.1797C92.1797 12.7031 92.263 12.362 92.4297 12.0391C92.5964 11.7161 92.8385 11.4323 93.1562 11.1875C93.474 10.9375 93.8516 10.7422 94.2891 10.6016C94.7318 10.4609 95.2266 10.3906 95.7734 10.3906C96.4297 10.3906 97.013 10.5 97.5234 10.7188C98.0339 10.9375 98.4349 11.2656 98.7266 11.7031C99.0234 12.1406 99.1719 12.6875 99.1719 13.3438V16.9609C99.1719 17.4245 99.2005 17.8047 99.2578 18.1016C99.3151 18.3932 99.3984 18.6484 99.5078 18.8672V19H97.2344C97.125 18.7708 97.0417 18.4844 96.9844 18.1406C96.9323 17.7917 96.9062 17.4427 96.9062 17.0938ZM97.2031 13.8516L97.2188 15.125H95.9609C95.6641 15.125 95.4062 15.1589 95.1875 15.2266C94.9688 15.2943 94.7891 15.3906 94.6484 15.5156C94.5078 15.6354 94.4036 15.776 94.3359 15.9375C94.2734 16.099 94.2422 16.276 94.2422 16.4688C94.2422 16.6615 94.2865 16.8359 94.375 16.9922C94.4635 17.1432 94.5911 17.263 94.7578 17.3516C94.9245 17.4349 95.1198 17.4766 95.3438 17.4766C95.6823 17.4766 95.9766 17.4089 96.2266 17.2734C96.4766 17.138 96.6693 16.9714 96.8047 16.7734C96.9453 16.5755 97.0182 16.388 97.0234 16.2109L97.6172 17.1641C97.5339 17.3776 97.4193 17.599 97.2734 17.8281C97.1328 18.0573 96.9531 18.2734 96.7344 18.4766C96.5156 18.6745 96.2526 18.8385 95.9453 18.9688C95.638 19.0938 95.2734 19.1562 94.8516 19.1562C94.3151 19.1562 93.8281 19.0495 93.3906 18.8359C92.9583 18.6172 92.6146 18.3177 92.3594 17.9375C92.1094 17.5521 91.9844 17.1146 91.9844 16.625C91.9844 16.1823 92.0677 15.7891 92.2344 15.4453C92.401 15.1016 92.6458 14.8125 92.9688 14.5781C93.2969 14.3385 93.7057 14.1589 94.1953 14.0391C94.6849 13.9141 95.2526 13.8516 95.8984 13.8516H97.2031ZM105.047 10.5469V12.1406H100.125V10.5469H105.047ZM101.344 8.46094H103.594V16.4531C103.594 16.6979 103.625 16.8854 103.688 17.0156C103.755 17.1458 103.854 17.237 103.984 17.2891C104.115 17.3359 104.279 17.3594 104.477 17.3594C104.617 17.3594 104.742 17.3542 104.852 17.3438C104.966 17.3281 105.062 17.3125 105.141 17.2969L105.148 18.9531C104.956 19.0156 104.747 19.0651 104.523 19.1016C104.299 19.138 104.052 19.1562 103.781 19.1562C103.286 19.1562 102.854 19.0755 102.484 18.9141C102.12 18.7474 101.839 18.4818 101.641 18.1172C101.443 17.7526 101.344 17.2734 101.344 16.6797V8.46094ZM110.219 19.1562C109.562 19.1562 108.974 19.0521 108.453 18.8438C107.932 18.6302 107.49 18.3359 107.125 17.9609C106.766 17.5859 106.49 17.151 106.297 16.6562C106.104 16.1562 106.008 15.625 106.008 15.0625V14.75C106.008 14.1094 106.099 13.5234 106.281 12.9922C106.464 12.4609 106.724 12 107.062 11.6094C107.406 11.2188 107.823 10.9193 108.312 10.7109C108.802 10.4974 109.354 10.3906 109.969 10.3906C110.568 10.3906 111.099 10.4896 111.562 10.6875C112.026 10.8854 112.414 11.1667 112.727 11.5312C113.044 11.8958 113.284 12.3333 113.445 12.8438C113.607 13.349 113.688 13.9115 113.688 14.5312V15.4688H106.969V13.9688H111.477V13.7969C111.477 13.4844 111.419 13.2057 111.305 12.9609C111.195 12.7109 111.029 12.513 110.805 12.3672C110.581 12.2214 110.294 12.1484 109.945 12.1484C109.648 12.1484 109.393 12.2135 109.18 12.3438C108.966 12.474 108.792 12.6562 108.656 12.8906C108.526 13.125 108.427 13.401 108.359 13.7188C108.297 14.0312 108.266 14.375 108.266 14.75V15.0625C108.266 15.401 108.312 15.7135 108.406 16C108.505 16.2865 108.643 16.5339 108.82 16.7422C109.003 16.9505 109.221 17.112 109.477 17.2266C109.737 17.3411 110.031 17.3984 110.359 17.3984C110.766 17.3984 111.143 17.3203 111.492 17.1641C111.846 17.0026 112.151 16.7604 112.406 16.4375L113.5 17.625C113.323 17.8802 113.081 18.125 112.773 18.3594C112.471 18.5938 112.107 18.7865 111.68 18.9375C111.253 19.0833 110.766 19.1562 110.219 19.1562ZM120.32 10.5469H122.359V18.7188C122.359 19.4896 122.188 20.1432 121.844 20.6797C121.505 21.2214 121.031 21.6302 120.422 21.9062C119.812 22.1875 119.104 22.3281 118.297 22.3281C117.943 22.3281 117.568 22.2812 117.172 22.1875C116.781 22.0938 116.406 21.9479 116.047 21.75C115.693 21.5521 115.396 21.3021 115.156 21L116.148 19.6719C116.409 19.974 116.711 20.2083 117.055 20.375C117.398 20.5469 117.779 20.6328 118.195 20.6328C118.602 20.6328 118.945 20.5573 119.227 20.4062C119.508 20.2604 119.724 20.0443 119.875 19.7578C120.026 19.4766 120.102 19.1354 120.102 18.7344V12.5L120.32 10.5469ZM114.633 14.875V14.7109C114.633 14.0651 114.711 13.4792 114.867 12.9531C115.029 12.4219 115.255 11.9661 115.547 11.5859C115.844 11.2057 116.203 10.9115 116.625 10.7031C117.047 10.4948 117.523 10.3906 118.055 10.3906C118.617 10.3906 119.089 10.4948 119.469 10.7031C119.849 10.9115 120.161 11.2083 120.406 11.5938C120.651 11.974 120.841 12.4245 120.977 12.9453C121.117 13.4609 121.227 14.026 121.305 14.6406V15C121.227 15.5885 121.109 16.1354 120.953 16.6406C120.797 17.1458 120.591 17.5885 120.336 17.9688C120.081 18.3438 119.763 18.6354 119.383 18.8438C119.008 19.0521 118.56 19.1562 118.039 19.1562C117.518 19.1562 117.047 19.0495 116.625 18.8359C116.208 18.6224 115.852 18.3229 115.555 17.9375C115.258 17.5521 115.029 17.099 114.867 16.5781C114.711 16.0573 114.633 15.4896 114.633 14.875ZM116.883 14.7109V14.875C116.883 15.224 116.917 15.5495 116.984 15.8516C117.052 16.1536 117.156 16.4219 117.297 16.6562C117.443 16.8854 117.622 17.0651 117.836 17.1953C118.055 17.3203 118.312 17.3828 118.609 17.3828C119.021 17.3828 119.357 17.2969 119.617 17.125C119.878 16.9479 120.073 16.7057 120.203 16.3984C120.333 16.0911 120.409 15.737 120.43 15.3359V14.3125C120.419 13.9844 120.375 13.6901 120.297 13.4297C120.219 13.1641 120.109 12.9375 119.969 12.75C119.828 12.5625 119.646 12.4167 119.422 12.3125C119.198 12.2083 118.932 12.1562 118.625 12.1562C118.328 12.1562 118.07 12.224 117.852 12.3594C117.638 12.4896 117.458 12.6693 117.312 12.8984C117.172 13.1276 117.065 13.3984 116.992 13.7109C116.919 14.0182 116.883 14.3516 116.883 14.7109ZM126.617 18.0469L128.859 10.5469H131.273L127.875 20.2734C127.802 20.487 127.703 20.7161 127.578 20.9609C127.458 21.2057 127.294 21.4375 127.086 21.6562C126.883 21.8802 126.625 22.0625 126.312 22.2031C126.005 22.3438 125.628 22.4141 125.18 22.4141C124.966 22.4141 124.792 22.401 124.656 22.375C124.521 22.349 124.359 22.3125 124.172 22.2656V20.6172C124.229 20.6172 124.289 20.6172 124.352 20.6172C124.414 20.6224 124.474 20.625 124.531 20.625C124.828 20.625 125.07 20.5911 125.258 20.5234C125.445 20.4557 125.596 20.3516 125.711 20.2109C125.826 20.0755 125.917 19.8984 125.984 19.6797L126.617 18.0469ZM125.68 10.5469L127.516 16.6719L127.836 19.0547L126.305 19.2188L123.266 10.5469H125.68Z" fill="black"/>
</svg>
